<svg xmlns="http://www.w3.org/2000/svg" width="306.01" height="210.41" viewBox="0 0 306.01 210.41">
  <g id="グループ_1716" data-name="グループ 1716" transform="translate(0 53.556) rotate(-11)">
    <path id="パス_888" data-name="パス 888" d="M175.8,158.586c-2.458,0-5.84-5.01-8.246-9.212-4.2-7.338-12.543-16.5-40.065-22.267-4.245-.891-11.105-1.412-19.791-2.075-38.085-2.9-108.972-8.3-107.681-61.084C1.331,10.191,42.255,0,117.311,0c7.325,0,15.586.092,25.256.284,40.8.807,136.331,2.694,136.9,68.942.408,47.247-51.4,53.595-79.232,57.007-7.566.926-14.1,1.727-16.238,3.011-9.657,5.8-7.151,23.228-6.288,26.2a2.712,2.712,0,0,1-.251,2.2A1.941,1.941,0,0,1,175.8,158.586Z" transform="translate(0.604 0.603)" fill="#fff"/>
    <path id="パス_889" data-name="パス 889" d="M141.291.286C52.548-1.478,1.461,3.248.017,62.608c-1.53,62.908,102.757,56.731,126.486,61.733,26.7,5.629,36.374,14.632,41.322,23.33,5.1,8.965,7.495,9.092,7.131,7.829-1.021-3.528-3.572-22.341,7.138-28.809s95.374.589,94.865-58.793C276.424,5.577,191.268,1.28,141.291.286Z" transform="translate(1.859 1.859)" fill="#fff"/>
    <path id="パス_890" data-name="パス 890" d="M176.342,159.79a3.127,3.127,0,0,1-1.235-.267,5.153,5.153,0,0,1-.957-.54,11.408,11.408,0,0,1-1.866-1.716,42.6,42.6,0,0,1-4.852-7.071,32.928,32.928,0,0,0-11.55-11.7c-6.781-4.262-15.913-7.555-27.917-10.064a157.968,157.968,0,0,0-16.832-1.837l-2.836-.216c-6.693-.507-14.277-1.084-22.3-1.963-24.264-2.663-41.9-7.007-55.513-13.673C18.286,104.765,9.64,96.853,4.786,87.226A46.623,46.623,0,0,1,0,66.012q0-.7.019-1.421C.35,50.947,3.235,39.984,8.84,31.074,14.2,22.548,21.947,16.083,32.525,11.308,50.313,3.285,75.059.008,117.946,0c6.9,0,14.612.082,23.53.25l3.411.068c16.636.351,35.947,1.127,54.632,3.915,23.3,3.482,41.065,9.312,54.311,17.824,10.788,6.937,18.424,15.726,22.693,26.124a58.106,58.106,0,0,1,4.153,21.682l0,.556a48.924,48.924,0,0,1-5.765,23.994,47.183,47.183,0,0,1-14.665,15.868c-9.81,6.808-22.616,11.439-40.3,14.574-6.913,1.224-13.4,2.016-19.121,2.716-1.726.213-3.363.411-4.895.61a79.611,79.611,0,0,0-8.813,1.486,8.658,8.658,0,0,0-2.2.8,12.62,12.62,0,0,0-5.345,7.056,29.711,29.711,0,0,0-1.421,9.622,42.826,42.826,0,0,0,.331,5.28,22.493,22.493,0,0,0,.549,3,4.214,4.214,0,0,1,.164,1.143,3.544,3.544,0,0,1-.455,1.776,2.858,2.858,0,0,1-1.474,1.285,2.636,2.636,0,0,1-.919.162ZM117.946,5.771c-22.73,0-39.7.918-53.421,2.891C48.746,10.928,36.7,14.695,27.712,20.175A43.9,43.9,0,0,0,12.94,34.443C7.948,42.386,5.371,52.3,5.066,64.75c-.012.429-.019.848-.019,1.263.005,8.857,2.268,16.385,6.918,23.006,4.158,5.919,10.315,11.066,18.3,15.3,12.7,6.732,30.23,11.329,53.595,14.057,8.9,1.041,17.33,1.681,24.768,2.246,2.785.213,5.41.411,7.834.614a115.772,115.772,0,0,1,12.41,1.519c12.545,2.624,22.176,6.12,29.44,10.684a38.41,38.41,0,0,1,13.341,13.6q.778,1.357,1.509,2.5c-.039-.8-.06-1.6-.06-2.394a35.865,35.865,0,0,1,1.782-11.762,18.123,18.123,0,0,1,7.687-10.027,15.775,15.775,0,0,1,4.7-1.618c1.68-.365,3.72-.7,6.619-1.1,1.956-.265,4.1-.526,6.4-.807,3.527-.431,7.527-.92,11.68-1.525,11.589-1.685,28.523-4.81,41.715-12.46,8.888-5.151,15.139-11.823,18.581-19.83a44.366,44.366,0,0,0,3.362-17.6v-.5a51.811,51.811,0,0,0-3.676-19.284A46.809,46.809,0,0,0,262.136,35.8C254.35,27.777,243,21.322,228.41,16.611c-25.686-8.3-57.311-10-84.924-10.55l-1.071-.021C133.087,5.859,125.076,5.771,117.946,5.771Z"/>
    <path id="パス_891" data-name="パス 891" d="M141.891,1.229l.015-.944C133.1.11,124.67,0,116.617,0,80.1.006,51.417,2.258,31.548,11.271c-9.933,4.51-17.676,10.742-23,19.259S.342,49.809.017,63.251c-.01.462-.017.924-.017,1.383a44.918,44.918,0,0,0,4.572,20.42c5.128,10.228,14.122,17.554,24.967,22.9,16.274,8.014,36.794,11.615,55.183,13.645,9.2,1.013,17.855,1.629,25.174,2.2a155.787,155.787,0,0,1,17.08,1.879c13.27,2.789,22.267,6.408,28.524,10.366a34.715,34.715,0,0,1,12.193,12.451,40.716,40.716,0,0,0,4.629,6.8,9.782,9.782,0,0,0,1.576,1.465,3.6,3.6,0,0,0,.655.376,1.652,1.652,0,0,0,.655.147,1.1,1.1,0,0,0,.4-.073,1.115,1.115,0,0,0,.565-.5,1.458,1.458,0,0,0,.18-.716,1.989,1.989,0,0,0-.072-.51l-.005-.018a24.331,24.331,0,0,1-.621-3.371,45.361,45.361,0,0,1-.351-5.61,32.456,32.456,0,0,1,1.549-10.439,14.727,14.727,0,0,1,6.153-8.128,10.545,10.545,0,0,1,2.623-.982,78.988,78.988,0,0,1,9.031-1.538c6.538-.852,15-1.739,24.024-3.344,13.53-2.412,28.314-6.422,39.8-14.44a45.564,45.564,0,0,0,14.154-15.38,47.237,47.237,0,0,0,5.518-23.157c0-.183,0-.36,0-.531v-.01a56.465,56.465,0,0,0-4-21.059C269.74,36.653,261.935,28.358,252.1,22,237.35,12.465,218,7.223,198.234,4.255S158.286.61,141.906.285l-.015.944-.014.944c24.931.492,58.612,1.819,86.028,10.726,13.708,4.447,25.833,10.793,34.515,19.792A48.974,48.974,0,0,1,272.673,48.28a54.359,54.359,0,0,1,3.85,20.276v-.01c0,.183,0,.36,0,.531A46.87,46.87,0,0,1,272.975,87.7c-3.956,9.255-10.932,15.958-19.4,20.9-12.7,7.406-28.7,10.763-42.408,12.768-6.853,1-13.131,1.672-18.153,2.354-2.51.342-4.707.689-6.518,1.086a14.747,14.747,0,0,0-4.245,1.444,16.572,16.572,0,0,0-6.915,9.1,34.569,34.569,0,0,0-1.667,11.137,47.549,47.549,0,0,0,.368,5.883,26.413,26.413,0,0,0,.688,3.7l.78-.3-.785.281,0,.008.21-.061h-.214l0,.061.21-.061h.26l-.443-.191a.628.628,0,0,0-.031.191h.474l-.443-.191.536.23-.289-.567a.676.676,0,0,0-.246.336l.536.23-.289-.567.217.425v-.5a.4.4,0,0,0-.217.075l.217.425v-.38l.012-.12h-.012v.12l.012-.12a1.62,1.62,0,0,1-.554-.313,12.355,12.355,0,0,1-2.171-2.327,47.429,47.429,0,0,1-3.427-5.3,36.486,36.486,0,0,0-12.777-13.071c-6.471-4.091-15.633-7.754-29.019-10.569a110.8,110.8,0,0,0-12.267-1.5c-8.872-.751-20.42-1.442-32.756-2.891-18.5-2.172-38.77-6.066-54.316-14.355-7.774-4.141-14.356-9.371-18.976-15.986s-7.312-14.6-7.315-24.442q0-.658.017-1.33c.323-13.171,3.121-23.51,8.222-31.671a46.155,46.155,0,0,1,15.4-14.981C34.938,10.736,47.514,7.03,62.81,4.821s33.3-2.933,53.808-2.933c8.039,0,16.463.11,25.259.285Z" transform="translate(1.256 1.256)"/>
  </g>
</svg>
