<svg xmlns="http://www.w3.org/2000/svg" width="99.533" height="35.597" viewBox="0 0 99.533 35.597">
  <g id="グループ_1662" data-name="グループ 1662" transform="translate(-293 -324.288)">
    <g id="グループ_1574" data-name="グループ 1574" transform="translate(293 324.288)">
      <path id="パス_833" data-name="パス 833" d="M566.79,378.765a34.962,34.962,0,0,0-9.729,4.054c-1.969,1.313-2.935,2.625-2.935,3.861a1.6,1.6,0,0,0,1.236,1.544,16.919,16.919,0,0,0,5.675.964,14.592,14.592,0,0,0,3.321-.386,31.836,31.836,0,0,1,4.323-.771,3.1,3.1,0,0,1,2.163,1.313,4.162,4.162,0,0,1,.927,2.085c-.077.425-.618.811-1.544,1.12a21.76,21.76,0,0,1-6.835.772,18.411,18.411,0,0,1-8.841-2.2c-2.086-1.081-3.09-2.471-3.09-4.209a5.667,5.667,0,0,1,1.429-3.706,17.321,17.321,0,0,1,4.363-3.127,2.305,2.305,0,0,1-.232-1.12,10.033,10.033,0,0,1,.232-1.815c.038-.617.077-1.814.077-3.59a38.315,38.315,0,0,0-.232-5.792,7.184,7.184,0,0,1-.656-2.046c0-.348.116-.54.386-.54a6.669,6.669,0,0,1,2.7.694c1.39.657,2.085,1.351,2.085,2.047a2.253,2.253,0,0,1-.386.964c-.27.425-.387,1.66-.387,3.706,0,2.78,0,4.364.078,4.75a3.89,3.89,0,0,0,.154.694c.618-.27,1.544-.733,2.857-1.35q2.6-1.217,2.78-2.086c-.077-.076-.077-.192-.077-.347a.635.635,0,0,1-.077-.386c0-.309.154-.463.5-.463a6.786,6.786,0,0,1,2.973.81c1.235.619,1.93,1.314,2.046,2.086C572.08,376.951,570.3,377.761,566.79,378.765Z" transform="translate(-551.462 -361.855)" fill="#fff"/>
      <path id="パス_834" data-name="パス 834" d="M612.942,389.755a18.457,18.457,0,0,1-5.058,6.1,37.631,37.631,0,0,0,2.51-6.95,38.59,38.59,0,0,0,1.235-9.459,20.977,20.977,0,0,0-.656-6.332c-.386-1-.811-1.544-1.274-1.544-.849.038-1.815.734-2.9,2.124a14.34,14.34,0,0,0-2.9,7.722c-.154,1.313-.386,2.007-.734,2.046-.656,0-1.313-.5-2.008-1.429a6.246,6.246,0,0,1-.7-3.126,24.562,24.562,0,0,1,1.737-6.216A53.225,53.225,0,0,0,604.1,366.9c-.117-1.082-.193-1.854-.27-2.395a6.641,6.641,0,0,1-.232-1.312c0-.541.27-.85.888-.85.5,0,1.12.58,1.854,1.7a7.066,7.066,0,0,1,1.042,2.472,27.91,27.91,0,0,1-1.583,3.32,6.269,6.269,0,0,0-.888,2.781c0,.232,0,.348.077.348a11.747,11.747,0,0,1,2.664-3.05,4.983,4.983,0,0,1,2.78-.927c3.243,0,4.9,3.707,4.9,11.082A20.464,20.464,0,0,1,612.942,389.755Z" transform="translate(-564.14 -361.301)" fill="#fff"/>
      <path id="パス_835" data-name="パス 835" d="M640.7,364.907a13.369,13.369,0,0,1,3.358,1.274,2.316,2.316,0,0,1,.927,1.97,1.648,1.648,0,0,1-.656,1.158,2.581,2.581,0,0,1-1.467.5,1.265,1.265,0,0,1-1-.541,15.953,15.953,0,0,1-2.818-3.822.734.734,0,0,1-.27-.463c.039-.194.155-.31.309-.31A6.808,6.808,0,0,1,640.7,364.907Zm-3.514,8.147a13.035,13.035,0,0,1,3.283,1.313,2.624,2.624,0,0,1,.888,2.084,1.651,1.651,0,0,1-.656,1.158,2.576,2.576,0,0,1-1.468.5,1.255,1.255,0,0,1-.964-.54,18.963,18.963,0,0,1-2.7-3.977.849.849,0,0,1-.231-.463.275.275,0,0,1,.27-.309A6.482,6.482,0,0,1,637.182,373.054Zm6.719,6.718a5.761,5.761,0,0,1-.5,1.621c-1.969,4.672-3.167,7.645-3.629,8.919a15.556,15.556,0,0,0-.657,2.394c-.386,1.313-.772,2.008-1.235,2.008s-1.043-.7-1.7-2.085a11.9,11.9,0,0,1-1-3.668.959.959,0,0,1,.425-.888,7.24,7.24,0,0,0,2.085-1.468,80.912,80.912,0,0,0,5.753-6.988.581.581,0,0,1,.309-.154A.343.343,0,0,1,643.9,379.772Zm17.451-14.595c.618.463.965.849.965,1.158a2.527,2.527,0,0,1-.155.812c-.116.308-.27.5-.463.54-1.583.386-3.2.734-4.865,1-.039.5-.077,1-.116,1.544a.714.714,0,0,0,.27-.076,5.352,5.352,0,0,1,1.081-.194c1.815,0,2.741.656,2.741,1.97,0,.231-.193.386-.579.463-1.274.27-2.51.5-3.668.657-.039.579-.077,1.2-.077,1.815,3.32-.464,5.984-.927,8.031-1.39.232,0,.386-.039.5-.039a5.741,5.741,0,0,1,2.51.772A2.836,2.836,0,0,1,668.8,376.3c0,.811-.309,1.2-.927,1.2s-1.621-.077-3.089-.232a19.891,19.891,0,0,0-2.316-.194,75.821,75.821,0,0,0-9.344.464,43.314,43.314,0,0,0-5.984,1.2,3.019,3.019,0,0,1-1.274.27,2.923,2.923,0,0,1-1.969-1.042c-.619-.656-.888-1.12-.888-1.351,0-.193.077-.309.309-.309a91.625,91.625,0,0,0,9.652-.965c0-.618.039-1.236.077-1.815a23.509,23.509,0,0,1-2.355.232,2.357,2.357,0,0,1-1.583-.58,1.4,1.4,0,0,1-.541-1.08c0-.154.077-.27.309-.31,1.467-.192,2.857-.425,4.208-.733,0-.618.039-1.236.039-1.776a17.723,17.723,0,0,1-2.432.231c-1.467,0-2.394-.347-2.818-1.119a2.023,2.023,0,0,1-.5-.966c0-.192.077-.308.309-.308,2.085-.116,3.9-.271,5.444-.5a20.363,20.363,0,0,0-.154-2.356,9.907,9.907,0,0,0-.7-1.428,1.761,1.761,0,0,1-.386-.85c0-.618.232-.926.772-.926a6.441,6.441,0,0,1,2.9.734q2.085.752,2.085,1.39a4.248,4.248,0,0,0-.077.733,8.229,8.229,0,0,0-.425,1.892,17.369,17.369,0,0,0,2.278-.772,1.757,1.757,0,0,1,.772-.192A3.515,3.515,0,0,1,661.352,365.177Zm-10.965,14.749a3.047,3.047,0,0,1,.695.154c.039,0,.077-.039.116-.039,1.622-.27,3.243-.618,4.865-1a7.887,7.887,0,0,0,1.776-.618,1.284,1.284,0,0,1,.386-.154,8.532,8.532,0,0,1,2.278.656q1.969,1.041,1.969,1.737a.417.417,0,0,1-.116.27,13.2,13.2,0,0,0-.5,4.556,37.436,37.436,0,0,0,.425,3.745,30.008,30.008,0,0,1,.347,3.359,5.521,5.521,0,0,1-1.12,2.548q-1.39,1.506-2.2,1.506a43.153,43.153,0,0,1-4.247-4.517c0-.194.039-.309.154-.309a10.61,10.61,0,0,0,2.587.618c.27,0,.425-.27.5-.811a30.441,30.441,0,0,0,.232-4.826,43.383,43.383,0,0,0-.463-5.367c0-.193-.27-.309-.734-.309s-1.158.077-2.085.154a28.608,28.608,0,0,0-3.822.812,11.391,11.391,0,0,0-.077,1.622v.27a27.073,27.073,0,0,0,2.818-.772,1.906,1.906,0,0,1,.579-.116c1.622,0,2.432.618,2.432,1.815,0,.154-.116.27-.309.309-1.313.309-2.51.5-3.629.656a15.347,15.347,0,0,1-1.776.231h-.154c-.039.7-.077,1.275-.077,1.815a26.738,26.738,0,0,0,3.05-.656,2.368,2.368,0,0,1,.618-.116c1.622,0,2.432.618,2.432,1.815,0,.154-.116.27-.347.27-1.39.27-2.7.463-3.9.579a14.282,14.282,0,0,1-1.93.193h-.116a19.436,19.436,0,0,1-.965,4.556,1.9,1.9,0,0,1-1.506,1.042,1.531,1.531,0,0,1-1.39-1.081,4.583,4.583,0,0,1-.425-2.085,2.139,2.139,0,0,1,.116-.656,14.613,14.613,0,0,0,1.274-3.861,34.432,34.432,0,0,0,.27-4.672,8.113,8.113,0,0,0-.193-1.66,4.955,4.955,0,0,1-.386-1.351c0-.386.116-.619.425-.619A5.866,5.866,0,0,1,650.387,379.927Z" transform="translate(-569.27 -361.047)" fill="#fff"/>
    </g>
  </g>
</svg>
