<svg xmlns="http://www.w3.org/2000/svg" width="59" height="33.757" viewBox="0 0 59 33.757">
  <g id="グループ_1601" data-name="グループ 1601" transform="translate(-58.973 -76.984)">
    <g id="グループ_1593" data-name="グループ 1593" transform="translate(58.973 76.984)">
      <g id="グループ_1589" data-name="グループ 1589">
        <g id="グループ_1588" data-name="グループ 1588">
          <g id="グループ_1587" data-name="グループ 1587">
            <rect id="長方形_1221" data-name="長方形 1221" width="51.083" height="33.339" fill="#00b539"/>
          </g>
        </g>
      </g>
      <g id="グループ_1592" data-name="グループ 1592" transform="translate(52.616 27.373)">
        <g id="グループ_1591" data-name="グループ 1591">
          <g id="グループ_1590" data-name="グループ 1590">
            <path id="パス_837" data-name="パス 837" d="M183.352,144.882a3.192,3.192,0,1,0,3.19-3.191,3.2,3.2,0,0,0-3.19,3.191m.37,0a2.822,2.822,0,1,1,2.821,2.82A2.826,2.826,0,0,1,183.722,144.884Z" transform="translate(-183.352 -141.691)" fill="#1a1311"/>
          </g>
        </g>
      </g>
      <path id="パス_838" data-name="パス 838" d="M190.631,148.367h-.613l-1.239-1.917h-.544v1.917h-.491v-4.218h1.194a1.429,1.429,0,0,1,.949.291,1,1,0,0,1,.349.812,1.039,1.039,0,0,1-.253.687,1.307,1.307,0,0,1-.7.407l1.349,2.02m-2.4-2.343h.618a.93.93,0,0,0,.632-.211.679.679,0,0,0,.242-.532q0-.706-.861-.705h-.632Z" transform="translate(-133.271 -115.737)" fill="#1a1311"/>
    </g>
    <g id="グループ_1600" data-name="グループ 1600" transform="translate(58.975 82.173)">
      <g id="グループ_1599" data-name="グループ 1599">
        <g id="グループ_1598" data-name="グループ 1598">
          <g id="グループ_1597" data-name="グループ 1597">
            <g id="グループ_1596" data-name="グループ 1596">
              <g id="グループ_1595" data-name="グループ 1595">
                <g id="グループ_1594" data-name="グループ 1594">
                  <path id="パス_839" data-name="パス 839" d="M71.811,109.92a6.325,6.325,0,0,1-6.281-6.561c0-3.429,3.4-6.169,6.281-7.808,2.883,1.639,6.28,4.378,6.28,7.808a6.324,6.324,0,0,1-6.28,6.561m19.246-6.635c0-3.431,3.4-6.172,6.279-7.809,2.885,1.638,6.279,4.378,6.279,7.809a6.285,6.285,0,1,1-12.558,0m18.994-14.036a28.785,28.785,0,0,0-12.914,2.918,28.786,28.786,0,0,0-25.256,0,28.751,28.751,0,0,0-12.9-2.918v2.919a25.8,25.8,0,0,1,9.712,1.843c-3.156,2.11-6.279,5.309-6.279,9.346a9.547,9.547,0,0,0,9.471,9.412,9.36,9.36,0,0,0,9.25-9.412c0-4.037-2.9-7.235-6.057-9.346a25.071,25.071,0,0,1,18.87,0c-3.156,2.11-6.057,5.309-6.057,9.346a9.36,9.36,0,0,0,9.25,9.412,9.488,9.488,0,0,0,9.4-9.412c0-4.037-3.052-7.235-6.209-9.346a25.851,25.851,0,0,1,9.722-1.843Z" transform="translate(-58.977 -89.249)" fill="#fff"/>
                </g>
              </g>
            </g>
          </g>
        </g>
      </g>
    </g>
  </g>
</svg>
