<svg id="グループ_1601" data-name="グループ 1601" xmlns="http://www.w3.org/2000/svg" width="47.504" height="27.18" viewBox="0 0 47.504 27.18">
  <g id="グループ_1593" data-name="グループ 1593" transform="translate(0 0)">
    <g id="グループ_1589" data-name="グループ 1589">
      <g id="グループ_1588" data-name="グループ 1588">
        <g id="グループ_1587" data-name="グループ 1587">
          <rect id="長方形_1221" data-name="長方形 1221" width="41.13" height="26.843" fill="#00b539"/>
        </g>
      </g>
    </g>
    <g id="グループ_1592" data-name="グループ 1592" transform="translate(42.364 22.039)">
      <g id="グループ_1591" data-name="グループ 1591">
        <g id="グループ_1590" data-name="グループ 1590">
          <path id="パス_837" data-name="パス 837" d="M183.352,144.261a2.57,2.57,0,1,0,2.569-2.57,2.573,2.573,0,0,0-2.569,2.57m.3,0a2.272,2.272,0,1,1,2.271,2.271A2.275,2.275,0,0,1,183.65,144.262Z" transform="translate(-183.352 -141.691)" fill="#fff"/>
        </g>
      </g>
    </g>
    <path id="パス_838" data-name="パス 838" d="M190.069,147.545h-.493l-1-1.544h-.438v1.544h-.4v-3.4h.962a1.15,1.15,0,0,1,.764.234.8.8,0,0,1,.281.654.837.837,0,0,1-.2.553,1.052,1.052,0,0,1-.564.328l1.086,1.627m-1.928-1.886h.5a.749.749,0,0,0,.509-.17.547.547,0,0,0,.195-.428q0-.568-.693-.568h-.509Z" transform="translate(-143.885 -121.273)" fill="#fff"/>
  </g>
  <g id="グループ_1600" data-name="グループ 1600" transform="translate(0.001 4.177)">
    <g id="グループ_1599" data-name="グループ 1599">
      <g id="グループ_1598" data-name="グループ 1598">
        <g id="グループ_1597" data-name="グループ 1597">
          <g id="グループ_1596" data-name="グループ 1596">
            <g id="グループ_1595" data-name="グループ 1595">
              <g id="グループ_1594" data-name="グループ 1594">
                <path id="パス_839" data-name="パス 839" d="M69.31,105.893a5.092,5.092,0,0,1-5.057-5.282c0-2.761,2.735-4.967,5.057-6.287,2.322,1.32,5.056,3.525,5.056,6.287a5.091,5.091,0,0,1-5.056,5.282m15.5-5.342c0-2.762,2.734-4.969,5.056-6.288,2.323,1.318,5.056,3.525,5.056,6.288a5.061,5.061,0,1,1-10.111,0m15.293-11.3A23.177,23.177,0,0,0,89.7,91.6a23.177,23.177,0,0,0-20.335,0,23.149,23.149,0,0,0-10.39-2.349V91.6a20.775,20.775,0,0,1,7.82,1.484c-2.541,1.7-5.055,4.275-5.055,7.525a7.687,7.687,0,0,0,7.626,7.578,7.536,7.536,0,0,0,7.448-7.578c0-3.25-2.335-5.826-4.877-7.525a20.186,20.186,0,0,1,15.194,0c-2.541,1.7-4.877,4.275-4.877,7.525a7.537,7.537,0,0,0,7.448,7.578,7.639,7.639,0,0,0,7.569-7.578c0-3.25-2.457-5.826-5-7.525A20.814,20.814,0,0,1,100.1,91.6Z" transform="translate(-58.977 -89.249)" fill="#fff"/>
              </g>
            </g>
          </g>
        </g>
      </g>
    </g>
  </g>
</svg>
