<svg xmlns="http://www.w3.org/2000/svg" width="33.559" height="33.559" viewBox="0 0 33.559 33.559">
  <path id="パス_878" data-name="パス 878" d="M23.6,17.24c-.275-.945-4.289-1.066-5.221-.878s-3.543.125-4.1-.44.186-1.505.746-2.07,1.771-2.352,2.144-2.729a27.86,27.86,0,0,0,3.014-3.481c1.43-2.321,1.912-4.594,1.165-5.347s-3-.267-5.3,1.176A27.818,27.818,0,0,0,12.6,6.514c-.373.376-2.144,1.6-2.7,2.164S8.4,9.995,7.844,9.43s-.622-3.2-.435-4.139S7.474.3,6.538.023,3.866,2.092,3.183,4.068C2.782,5.226-.64,10.653.106,14.6s1.43,5.959,2.284,6.821,2.844,1.552,6.759,2.3,9.294-2.7,10.441-3.1C21.548,19.936,23.874,18.184,23.6,17.24Z" transform="translate(0 16.703) rotate(-45)" fill="#6e3f0f" opacity="0.6"/>
</svg>
