<svg xmlns="http://www.w3.org/2000/svg" width="31.445" height="34.681" viewBox="0 0 31.445 34.681">
  <g id="グループ_1773" data-name="グループ 1773" transform="translate(-23.886 0)">
    <path id="パス_905" data-name="パス 905" d="M54.649,27.116a31.864,31.864,0,0,0-6.578-4.141c-1.061-.345-2.462.587-2.936,1.855s-1.141,1.085-1.141,1.085-2.523-1.183-6.876-6.349-5.092-7.852-5.092-7.852-.067-.688,1.264-.941S35.776,9.3,35.616,8.194A31.805,31.805,0,0,0,32.65,1.01c-1.009-1.5-3.26-.969-3.772-.661S23,3.443,24.012,9.526a31.391,31.391,0,0,0,7.174,15.039,31.383,31.383,0,0,0,13.606,9.62c5.823,2.027,9.48-2.786,9.87-3.24S55.957,28.365,54.649,27.116Z" transform="translate(0 0)" fill="#221714"/>
  </g>
</svg>
