<svg xmlns="http://www.w3.org/2000/svg" width="250.592" height="281.885" viewBox="0 0 250.592 281.885">
  <g id="グループ_1583" data-name="グループ 1583" transform="translate(14)">
    <g id="グループ_1577" data-name="グループ 1577" transform="translate(2)">
      <path id="パス_836" data-name="パス 836" d="M108.5,0A108.5,108.5,0,1,1,0,108.5,108.5,108.5,0,0,1,108.5,0Z" fill="#221714"/>
      <g id="グループ_1571" data-name="グループ 1571" transform="translate(0 0)">
        <g id="グループ_1544" data-name="グループ 1544" transform="translate(0)">
          <circle id="楕円形_291" data-name="楕円形 291" cx="104.14" cy="104.14" r="104.14" transform="translate(0 208.042) rotate(-87.261)" fill="#d61518"/>
          <path id="パス_796" data-name="パス 796" d="M217.155,286.561a105.53,105.53,0,1,1,74.618-30.909A104.83,104.83,0,0,1,217.155,286.561Zm0-208.28a102.752,102.752,0,1,0,102.75,102.753A102.868,102.868,0,0,0,217.155,78.281Z" transform="translate(-108.157 -72.036)" fill="#221714"/>
        </g>
        <g id="グループ_1545" data-name="グループ 1545" transform="translate(9.537 9.537)">
          <circle id="楕円形_292" data-name="楕円形 292" cx="72.097" cy="72.097" r="72.097" transform="translate(0 121.904) rotate(-57.716)" fill="#eba514"/>
          <path id="パス_797" data-name="パス 797" d="M199.731,237.1a73.485,73.485,0,1,1,73.483-73.485A73.569,73.569,0,0,1,199.731,237.1Zm0-144.2a70.709,70.709,0,1,0,70.708,70.71A70.788,70.788,0,0,0,199.731,92.9Z" transform="translate(-100.271 -64.15)" fill="#221714"/>
        </g>
        <g id="グループ_1561" data-name="グループ 1561" transform="translate(58.457 49.858)">
          <g id="グループ_1553" data-name="グループ 1553">
            <g id="グループ_1547" data-name="グループ 1547">
              <g id="グループ_1546" data-name="グループ 1546" opacity="0.96">
                <path id="パス_798" data-name="パス 798" d="M233.452,166.337c4.333-6.041,5.674-12.7,2.878-14.889-.958-.75-2.847-1.348-5.883,1.254,4.945-10.9,4.105-12.895,2.928-13.907-1.725-1.488-4.323.46-5.3,1.195a70.377,70.377,0,0,1-9.773,6.468c-2.562,1.273-3.474,1.07-3.748.923-1.372-.739-1.052-6.087-.715-11.753.066-1.111.136-2.282.2-3.5a17.379,17.379,0,0,0-.686-5.688c8.344-12.191,6.041-17.559,3.919-19.672-2.317-2.312-6.017-2.56-9.173-1.567,1.455-4.8,1.427-6.937.066-8.009-1.9-1.5-4.907.412-10.358,3.884-1.092.7-2.286,1.458-3.555,2.242-.517-2.4-1.5-4.791-3.638-5.05-2.437-.289-5,2.385-8.318,8.68-2.192,4.16-3.838,8.307-3.906,8.48-.007.017-.009.035-.013.05q-1.042.575-2.058,1.217a46.669,46.669,0,0,0-4.193,2.981.411.411,0,0,0-.042-.046l-8.186-7.018a1.345,1.345,0,0,0-2.218,1.021v14.043l-13.9-1.072a1.343,1.343,0,0,0-1.142,2.19l9.079,11.1q-.306.549-.594,1.094c-3.533-2.367-9.572-1.8-13.523.237-2.483,1.28-3.733,2.981-3.52,4.783.16,1.361,1.1,2.534,2.845,3.538a6.133,6.133,0,0,0-3.6,2.661,5.084,5.084,0,0,0,.487,5.528c1.517,2.218,4.949,4.5,10.01,4.5.309,0,.629-.011.951-.028a34.744,34.744,0,0,0,.162,5.092,29.017,29.017,0,0,0,7.316,16.673,44.06,44.06,0,0,0,9.074,7.606,1.456,1.456,0,0,0,.388.162,16.143,16.143,0,0,0,.594,1.714l-2.367,2.209-10-6.571a1.025,1.025,0,0,0-1.471,1.33l4.62,8.831-7.6,7.509a1.024,1.024,0,0,0,1,1.712l9.155-2.628,1.948,8.309a1.02,1.02,0,0,0,1,.789h.013a1.021,1.021,0,0,0,.988-.815l2.391-11.538,7.706-4.465a11.266,11.266,0,0,0,3.873-1.892,1.478,1.478,0,0,0,.392.134,41.137,41.137,0,0,0,6.981.565,62.493,62.493,0,0,0,9.381-.785,1.251,1.251,0,0,0,.27-.07,9.146,9.146,0,0,0,6.407,3.049,7.774,7.774,0,0,0,2.863-.568c.478.688.96,1.392,1.42,2.076V213.91a1.025,1.025,0,0,0,.892,1.015c.044,0,.09.007.132.007a1.023,1.023,0,0,0,.988-.763c1.129-4.287,2.742-9.267,3.542-10.442a39.2,39.2,0,0,1,6.514,4,1.023,1.023,0,0,0,1.552-1.2l-2.873-7.437,8.11-5.626a1.024,1.024,0,0,0-.879-1.821l-13.618,4.114-.206-.294a12.386,12.386,0,0,0,2-2.968l.046-.013c11.31-4,20.706-12.5,22.88-16.849,1.026-2.058,3.209-7.042,1.251-8.877A2.086,2.086,0,0,0,233.452,166.337Z" transform="translate(-136.714 -96.67)" fill="#fff"/>
              </g>
            </g>
            <g id="グループ_1552" data-name="グループ 1552">
              <g id="グループ_1548" data-name="グループ 1548" opacity="0.96">
                <path id="パス_799" data-name="パス 799" d="M233.452,166.337c4.333-6.041,5.674-12.7,2.878-14.889-.958-.75-2.847-1.348-5.883,1.254,4.945-10.9,4.105-12.895,2.928-13.907-1.725-1.488-4.323.46-5.3,1.195a70.377,70.377,0,0,1-9.773,6.468c-2.562,1.273-3.474,1.07-3.748.923-1.372-.739-1.052-6.087-.715-11.753.066-1.111.136-2.282.2-3.5a17.379,17.379,0,0,0-.686-5.688c8.344-12.191,6.041-17.559,3.919-19.672-2.317-2.312-6.017-2.56-9.173-1.567,1.455-4.8,1.427-6.937.066-8.009-1.9-1.5-4.907.412-10.358,3.884-1.092.7-2.286,1.458-3.555,2.242-.517-2.4-1.5-4.791-3.638-5.05-2.437-.289-5,2.385-8.318,8.68-2.192,4.16-3.838,8.307-3.906,8.48-.007.017-.009.035-.013.05q-1.042.575-2.058,1.217a46.669,46.669,0,0,0-4.193,2.981.411.411,0,0,0-.042-.046l-8.186-7.018a1.345,1.345,0,0,0-2.218,1.021v14.043l-13.9-1.072a1.343,1.343,0,0,0-1.142,2.19l9.079,11.1q-.306.549-.594,1.094c-3.533-2.367-9.572-1.8-13.523.237-2.483,1.28-3.733,2.981-3.52,4.783.16,1.361,1.1,2.534,2.845,3.538a6.133,6.133,0,0,0-3.6,2.661,5.084,5.084,0,0,0,.487,5.528c1.517,2.218,4.949,4.5,10.01,4.5.309,0,.629-.011.951-.028a34.744,34.744,0,0,0,.162,5.092,29.017,29.017,0,0,0,7.316,16.673,44.06,44.06,0,0,0,9.074,7.606,1.456,1.456,0,0,0,.388.162,16.143,16.143,0,0,0,.594,1.714l-2.367,2.209-10-6.571a1.025,1.025,0,0,0-1.471,1.33l4.62,8.831-7.6,7.509a1.024,1.024,0,0,0,1,1.712l9.155-2.628,1.948,8.309a1.02,1.02,0,0,0,1,.789h.013a1.021,1.021,0,0,0,.988-.815l2.391-11.538,7.706-4.465a11.266,11.266,0,0,0,3.873-1.892,1.478,1.478,0,0,0,.392.134,41.137,41.137,0,0,0,6.981.565,62.493,62.493,0,0,0,9.381-.785,1.251,1.251,0,0,0,.27-.07,9.146,9.146,0,0,0,6.407,3.049,7.774,7.774,0,0,0,2.863-.568c.478.688.96,1.392,1.42,2.076V213.91a1.025,1.025,0,0,0,.892,1.015c.044,0,.09.007.132.007a1.023,1.023,0,0,0,.988-.763c1.129-4.287,2.742-9.267,3.542-10.442a39.2,39.2,0,0,1,6.514,4,1.023,1.023,0,0,0,1.552-1.2l-2.873-7.437,8.11-5.626a1.024,1.024,0,0,0-.879-1.821l-13.618,4.114-.206-.294a12.386,12.386,0,0,0,2-2.968l.046-.013c11.31-4,20.706-12.5,22.88-16.849,1.026-2.058,3.209-7.042,1.251-8.877A2.086,2.086,0,0,0,233.452,166.337Zm-48.773-58.158c3.88-7.356,5.591-7.248,5.613-7.248.261.033,1.12.971,1.639,4.743a1.344,1.344,0,0,0,2.023.969c1.931-1.162,3.72-2.3,5.3-3.305,2.878-1.835,6.122-3.9,7.22-3.98.112.513.079,2.249-1.887,7.958a1.344,1.344,0,0,0,2.034,1.543c2.5-1.729,6.711-2.233,8.759-.193,2.42,2.413,1.249,7.709-3.191,14.668a24.336,24.336,0,0,0-5.4-7.36c-4.125-3.873-9.072-5.894-13.234-5.405a40.65,40.65,0,0,0-11.5,3.1C182.724,112.131,183.647,110.141,184.679,108.179Zm-14.63,13.241a57.552,57.552,0,0,0-5.683,5.821V116.547Zm-8.2,8.96a79.189,79.189,0,0,0-4.7,7.023l-6.446-7.882Zm-21.826,25.831a2.565,2.565,0,0,1-.373-2.676c.818-1.429,3.509-2.13,7.2-1.874a1.344,1.344,0,0,0,.412-2.646c-6.133-1.508-6.5-3.148-6.521-3.329-.055-.471.568-1.3,2.084-2.08,3.3-1.705,8.631-2.117,11.058-.2a50.008,50.008,0,0,0-4.905,16.081C144.582,159.814,141.349,158.15,140.025,156.211Zm24.531,44.827a1.019,1.019,0,0,0-.489.677l-1.545,7.45-1.135-4.844a1.021,1.021,0,0,0-1.278-.752l-6.334,1.817,5.289-5.221a1.018,1.018,0,0,0,.186-1.2l-3.141-6.008,7.375,4.844a1.021,1.021,0,0,0,1.26-.105l2.529-2.363a6.458,6.458,0,0,0,2.792,2.514Zm67.179-26.716c-1.808,3.619-9.392,10.345-18.374,14.269.037-.075.074-.149.114-.226a1.343,1.343,0,1,0-2.38-1.245c-.476.91-.883,1.753-1.243,2.5a19.485,19.485,0,0,1-2.014,3.579l-1.876-2.681a1.023,1.023,0,1,0-1.677,1.173l4.092,5.848a1.031,1.031,0,0,0,1.135.392l8.123-2.455-3.448,2.391a1.024,1.024,0,0,0-.37,1.21l1.966,5.092c-2.212-1.449-4.377-2.639-5.366-2.529-.489.055-1.379.153-3.1,5.184v-6.505a1.03,1.03,0,0,0-.173-.568c-5.438-8.16-6.2-8.145-6.777-8.151a1.1,1.1,0,0,0-.925.506,1.023,1.023,0,0,0,.3,1.416,1.044,1.044,0,0,0,.388.151,24.871,24.871,0,0,1,2.08,2.589c-4.594,1.179-7.608-4.6-7.75-4.881a1.343,1.343,0,0,0-2.4,1.21c.134.27.294.557.473.851a48.2,48.2,0,0,1-12.072.324c.642-.62,1.3-1.3,1.975-2.049a1.343,1.343,0,0,0-1.995-1.8c-3.9,4.318-7.156,6.284-9.175,5.53-2.979-1.109-3.787-7.915-3.833-10.212a1.347,1.347,0,0,0-1.344-1.317h-.026a1.344,1.344,0,0,0-1.317,1.37c.007.3.035,1.252.186,2.507a42.662,42.662,0,0,1-6.54-5.815,26.086,26.086,0,0,1-6.56-15c-.835-7.858,1.341-16.52,6.472-25.741,9.317-16.752,21.291-26.094,35.584-27.764,3.312-.388,7.389,1.344,10.893,4.633,4.215,3.954,6.582,9.138,6.332,13.863-.064,1.216-.131,2.378-.2,3.485-.48,8.031-.769,12.879,2.249,14.5,2.79,1.5,7.15-.5,16.66-7.628a9.751,9.751,0,0,1,1.515-.973c-.064,1.043-.655,3.855-3.921,10.928-2.321,5.032-4.833,9.683-4.857,9.732a1.462,1.462,0,0,0,2.418,1.62c.028-.035,2.919-3.564,4.824-5.977,3.016-3.825,4.583-4.013,4.719-3.908.78.614.576,5.758-4.1,11.753-1.341,1.718-2.266,2.99-2.83,3.884-.465.739-1.333,2.113-.324,3.121,1.037,1.032,2.38.107,3.1-.39.666-.456,1.447-1.07,2.2-1.659.261-.206.539-.423.8-.62A17.279,17.279,0,0,1,231.736,174.322Z" transform="translate(-136.714 -96.67)" fill="#221714"/>
              </g>
              <g id="グループ_1549" data-name="グループ 1549" transform="translate(44.581 48.903)" opacity="0.96">
                <path id="パス_800" data-name="パス 800" d="M183.093,131.537c-1.473-.842-3.478-.925-5.881-.281,5.995-7.007,6.512-9.677,5.238-11.255-1.168-1.449-3.684-2.069-14.1,3.156-5.387,2.7-10.543,5.819-10.593,5.848a1.462,1.462,0,1,0,1.512,2.5c.046-.029,4.66-2.814,9.666-5.37,7.776-3.969,10.394-4.274,11.128-4.226-.16.864-1.433,3.812-9.749,12.6a1.463,1.463,0,0,0,1.828,2.251c5.057-3.1,8.279-3.389,9.5-2.689a1.281,1.281,0,0,1,.64,1.293c-.037,2.266-2.856,6.17-8.954,9.381a1.461,1.461,0,0,0,.859,2.744,5.817,5.817,0,0,1,2.7.085c-.315,1.083-3.79,4.368-10.074,6.014a1.463,1.463,0,0,0,.37,2.878,1.434,1.434,0,0,0,.37-.048c6.462-1.692,12.919-5.916,12.232-9.5a2.608,2.608,0,0,0-1.387-1.87c4.18-3,6.751-6.556,6.8-9.635A4.237,4.237,0,0,0,183.093,131.537Z" transform="translate(-157.054 -118.982)" fill="#221714"/>
              </g>
              <g id="グループ_1550" data-name="グループ 1550" transform="translate(33.15 37.731)" opacity="0.96">
                <path id="パス_801" data-name="パス 801" d="M169.483,126.657a11.291,11.291,0,0,0-2.67-10.041,8.568,8.568,0,0,0-7.893-2.589,8.163,8.163,0,0,0-5.916,4.252,10.981,10.981,0,0,0-.219,9.4,9.667,9.667,0,0,0,8.489,5.975h.015A8.58,8.58,0,0,0,169.483,126.657Zm-8.2,4.307a7.043,7.043,0,0,1-6.032-4.368,8.361,8.361,0,0,1,.125-7.047,5.456,5.456,0,0,1,4.009-2.873,6.77,6.77,0,0,1,1.173-.105,5.863,5.863,0,0,1,4.316,1.9,8.553,8.553,0,0,1,1.994,7.6A5.91,5.91,0,0,1,161.279,130.964Z" transform="translate(-151.839 -113.885)" fill="#221714"/>
              </g>
              <g id="グループ_1551" data-name="グループ 1551" transform="translate(37.683 26.849)" opacity="0.96">
                <path id="パス_802" data-name="パス 802" d="M156.062,115.643c2.841-2.155,7.867-4.861,9.626-3.822.8.469,1.05,2.036.706,4.412a1.343,1.343,0,0,0,1.137,1.521,1.447,1.447,0,0,0,.2.013,1.345,1.345,0,0,0,1.328-1.151c.522-3.628-.151-6.021-2-7.11-3.932-2.319-11.2,2.922-12.614,4a1.344,1.344,0,0,0,1.624,2.141Z" transform="translate(-153.907 -108.92)" fill="#221714"/>
              </g>
            </g>
          </g>
          <g id="グループ_1554" data-name="グループ 1554" transform="translate(35.843 40.417)">
            <path id="パス_803" data-name="パス 803" d="M159.815,129.5a7.043,7.043,0,0,1-6.032-4.368,8.362,8.362,0,0,1,.125-7.047,5.456,5.456,0,0,1,4.009-2.874,6.77,6.77,0,0,1,1.173-.105,5.862,5.862,0,0,1,4.316,1.9,8.553,8.553,0,0,1,1.995,7.6A5.91,5.91,0,0,1,159.815,129.5Z" transform="translate(-153.067 -115.11)" fill="#d7508e"/>
          </g>
          <g id="グループ_1555" data-name="グループ 1555" transform="translate(27.651 19.877)">
            <path id="パス_804" data-name="パス 804" d="M155.013,110.611a57.552,57.552,0,0,0-5.683,5.821V105.739Z" transform="translate(-149.33 -105.739)" fill="#f3e727"/>
          </g>
          <g id="グループ_1556" data-name="グループ 1556" transform="translate(13.987 32.851)">
            <path id="パス_805" data-name="パス 805" d="M154.246,112.517a79.207,79.207,0,0,0-4.7,7.023l-6.446-7.882Z" transform="translate(-143.096 -111.658)" fill="#f3e727"/>
          </g>
          <g id="グループ_1557" data-name="グループ 1557" transform="translate(2.69 45.467)">
            <path id="パス_806" data-name="パス 806" d="M138.562,131.488a2.565,2.565,0,0,1-.373-2.676c.817-1.429,3.509-2.131,7.2-1.874a1.344,1.344,0,0,0,.412-2.645c-6.133-1.508-6.5-3.147-6.521-3.329-.055-.471.568-1.3,2.084-2.08,3.3-1.705,8.631-2.117,11.058-.2a50.008,50.008,0,0,0-4.905,16.081C143.119,135.091,139.886,133.427,138.562,131.488Z" transform="translate(-137.942 -117.414)" fill="#d61518"/>
          </g>
          <g id="グループ_1558" data-name="グループ 1558" transform="translate(45.335 2.687)">
            <path id="パス_807" data-name="パス 807" d="M160.028,106.718c3.88-7.356,5.591-7.248,5.613-7.248.261.033,1.12.971,1.639,4.743a1.344,1.344,0,0,0,2.023.969c1.931-1.162,3.719-2.3,5.3-3.305,2.878-1.835,6.122-3.9,7.22-3.98.112.513.079,2.249-1.887,7.958a1.344,1.344,0,0,0,2.034,1.543c2.5-1.729,6.711-2.233,8.759-.193,2.42,2.413,1.249,7.709-3.191,14.668a24.338,24.338,0,0,0-5.4-7.36c-4.125-3.873-9.072-5.894-13.234-5.405a40.647,40.647,0,0,0-11.5,3.1C158.073,110.67,159,108.68,160.028,106.718Z" transform="translate(-157.398 -97.896)" fill="#d61518"/>
          </g>
          <g id="グループ_1559" data-name="グループ 1559" transform="translate(17.06 96.286)">
            <path id="パス_808" data-name="パス 808" d="M155.28,148.681a1.019,1.019,0,0,0-.489.677l-1.545,7.45-1.135-4.844a1.021,1.021,0,0,0-1.278-.752L144.5,153.03l5.289-5.221a1.018,1.018,0,0,0,.186-1.2l-3.141-6.008,7.375,4.844a1.021,1.021,0,0,0,1.26-.105L158,142.976a6.458,6.458,0,0,0,2.792,2.514Z" transform="translate(-144.498 -140.6)" fill="#f3e727"/>
          </g>
          <g id="グループ_1560" data-name="グループ 1560" transform="translate(65.331 95.017)">
            <path id="パス_809" data-name="パス 809" d="M168.761,140.021l4.092,5.848a1.03,1.03,0,0,0,1.135.392l8.123-2.455-3.448,2.391a1.024,1.024,0,0,0-.37,1.21l1.966,5.092c-2.212-1.449-4.377-2.639-5.366-2.529-.489.055-1.379.153-3.1,5.184v-6.505a1.03,1.03,0,0,0-.173-.568,67.455,67.455,0,0,0-5.1-7.009" transform="translate(-166.521 -140.021)" fill="#f3e727"/>
          </g>
        </g>
        <g id="グループ_1562" data-name="グループ 1562" transform="translate(31.02 10.924)">
          <path id="パス_810" data-name="パス 810" d="M141.621,112.18c-.561-.508-1.054-1.041-1.593-1.528-4.182-3.787-12.87-3.446-15.558-5.876-.982-.89.953-3.218,1.569-3.9a2.569,2.569,0,0,1,1.58-.993c1.357-.09,7.049,2.641,7.577,2.056.782-.864-2.507-5.543-2.7-6.828a2.943,2.943,0,0,1,1.1-2.534c.721-.793,2.244-2.477,3.367-1.462,2.218,2.01,3.7,10.573,6.538,13.914a15.78,15.78,0,0,0,1.243,1.21c2.689,2.433,3.476,3.018.791,5.988C144.176,113.725,143,113.427,141.621,112.18Z" transform="translate(-124.196 -64.729)" fill="#040000"/>
          <path id="パス_811" data-name="パス 811" d="M139.575,107.628c-1.648-2.613-5.368-17.335-4.2-19.972a3.389,3.389,0,0,1,1.6-1.6,3.178,3.178,0,0,1,3.163-.539c2.887.975,13.7,9.811,15.349,12.425,1.159,1.841-1.107,3.268-2.415,4.092-3.174,2-1.33-4-6.878-.511-4.561,2.871,1.447,3.895-2.315,6.262C142.175,108.86,140.934,109.789,139.575,107.628Zm4.923-10.4a1.01,1.01,0,0,0,.379-1.469c-.386-.614-3.6-4.178-4.241-3.774-.533.335,1.221,4.894,1.591,5.482.454.721,1.1.5,1.71.114Z" transform="translate(-111.137 -71.283)" fill="#040000"/>
          <path id="パス_812" data-name="パス 812" d="M144.29,84.439a4.213,4.213,0,0,1,2.332-1.344,7.165,7.165,0,0,1,1.144-.239c1.212-.127,1.6,1.631,1.859,2.51.32,1.087.544,2.172.864,3.261.079.272.267.907.66.791,1.148-.338,1.563-3.288,1.71-4.349a8.867,8.867,0,0,1,.5-1.988,6.9,6.9,0,0,1,.945-1.692,4.406,4.406,0,0,1,2.571-1.317c.848-.25,2.735-.642,3.075.506.552,1.874-2.22,7.525-1.594,9.64.989,3.358,6.586,6.179,7.351,8.778.34,1.151-2.738,2.089-3.522,2.321-3.781,1.113-7.09-6.323-9.057-5.745-.6.18.053,2.187.169,2.58.285.967.671,1.94.956,2.906.41,1.392.239,2.593-1.273,3.038a5.146,5.146,0,0,1-3.018.134c-1.949-1.037-3.95-7.939-4.592-10.118C144.788,92.148,143.054,86.153,144.29,84.439Z" transform="translate(-100.766 -77.841)" fill="#040000"/>
          <path id="パス_813" data-name="パス 813" d="M162.7,91.854c.121,1.6.36,6.106-.2,7.507a2.669,2.669,0,0,1-2.435,1.729,4.49,4.49,0,0,1-2.262-.243c-1.541-.739-2.062-6.928-2.183-8.563-.1-1.352-.261-2.667-.359-4.02-.136-1.824-.508-7.706,1.146-8.809a3.235,3.235,0,0,1,1.609-.5,3.618,3.618,0,0,1,2.168.25c1.477.745,2,5.637,2.113,7.178Z" transform="translate(-87.336 -78.907)" fill="#040000"/>
          <path id="パス_814" data-name="パス 814" d="M177.5,85.56c-.469-.061-.9-.182-1.368-.243-2.251-.294-2.849,1.376-3.095,3.253-.169,1.28-.269,2.54-.436,3.82-.206,1.563-1.151,8.053-2.277,8.89a3.077,3.077,0,0,1-2.22.219,4.062,4.062,0,0,1-1.9-.535c-1.438-1.142-.73-6.326-.509-8.015.208-1.594.476-3.147.684-4.743a13.867,13.867,0,0,0,.14-2.3c-.188-3.426-5.48-.877-5.092-3.844a4.848,4.848,0,0,1,.934-2.516c1.3-.975,5.815-.48,7.441-.267,1.907.25,9.083.807,9.624,3.229a12.721,12.721,0,0,1-.066,1.964C179.223,85.531,178.408,85.678,177.5,85.56Z" transform="translate(-79.847 -78.843)" fill="#040000"/>
          <path id="パス_815" data-name="パス 815" d="M192.269,97.909a11.3,11.3,0,1,1-20.732-9,11.132,11.132,0,0,1,14.58-6.111C192.131,85.407,194.919,91.807,192.269,97.909Zm-6.306-2.019c1.291-2.977,2.192-6.711-1.539-8.331-3.643-1.583-5.857,1.615-7.139,4.563-1.267,2.922-.839,5.892,2.312,7.259C182.375,100.588,184.907,98.319,185.963,95.891Z" transform="translate(-68.971 -75.337)" fill="#040000"/>
          <path id="パス_816" data-name="パス 816" d="M181.482,105.448a6.289,6.289,0,0,1-1.653-1.813c-1.144-2.13,4.3-8.43,5.622-10.034a40.948,40.948,0,0,1,4.493-4.752,5.845,5.845,0,0,1,2.83-1.547c1.832-.042,5.135,2.641,6.545,3.805,3.283,2.709,5.208,7.608,2.2,11.255a4.383,4.383,0,0,1-1.949,1.418,8.468,8.468,0,0,1-3.792.386c-.138-.031-.7-.088-.8.033a5.432,5.432,0,0,0,.044,1.631c.064,1.359-1.71,5.986-2.593,7.055-.7.85-3.308-1.094-3.915-1.6-3.137-2.586,3.853-6.751-.208-10.1-.607-.5-1.951,1.129-2.312,1.567-.482.583-.91,1.252-1.411,1.859C183.658,105.733,182.843,106.571,181.482,105.448Zm9.993-9.289c-.381.462-.914,1.208-.307,1.71,1.775,1.464,3.614,2.654,5.42.465,1.063-1.289.436-3.154-.734-4.116l-.7-.583c-.754-.623-1.411-.224-1.951.434Z" transform="translate(-58.079 -68.901)" fill="#040000"/>
          <path id="パス_817" data-name="パス 817" d="M196.777,107.4c-1.256,1-4.84,3.744-6.31,4.072a2.669,2.669,0,0,1-2.8-1.032,4.486,4.486,0,0,1-1.078-2.006c-.259-1.688,4.555-5.613,5.837-6.635,1.059-.846,2.054-1.723,3.115-2.569,1.429-1.142,6.074-4.772,7.919-4.026a3.227,3.227,0,0,1,1.32,1.046,3.614,3.614,0,0,1,1.017,1.931c.219,1.639-3.524,4.833-4.732,5.8Z" transform="translate(-49.849 -59.607)" fill="#040000"/>
        </g>
        <g id="グループ_1563" data-name="グループ 1563" transform="translate(42.991 166.017)">
          <path id="パス_818" data-name="パス 818" d="M147.26,162.494c-.375-.289-.684-.609-1.059-.9-1.8-1.385-3.154-.243-4.311,1.252-.789,1.023-1.51,2.06-2.3,3.084-.962,1.247-5.043,6.38-6.437,6.538a3.08,3.08,0,0,1-2.03-.929,4.033,4.033,0,0,1-1.374-1.42c-.671-1.71,2.551-5.833,3.59-7.18.982-1.274,1.995-2.483,2.979-3.755a14.318,14.318,0,0,0,1.28-1.92c1.563-3.053-4.3-3.511-2.466-5.883.405-.524,1.409-1.62,2.071-1.705,1.618-.186,5.269,2.512,6.567,3.513,1.521,1.175,7.441,5.267,6.689,7.632a12.7,12.7,0,0,1-1.043,1.664C148.761,163.333,147.986,163.05,147.26,162.494Z" transform="translate(-129.658 -149.667)" fill="#040000"/>
          <path id="パス_819" data-name="パス 819" d="M159.883,171.728a11.3,11.3,0,1,1-20.954-8.471,11.132,11.132,0,0,1,14.42-6.479C159.429,159.234,162.377,165.562,159.883,171.728Zm-6.354-1.854c1.217-3.009,2.021-6.766-1.749-8.29-3.682-1.488-5.813,1.762-7.018,4.743-1.195,2.952-.69,5.911,2.494,7.2C150.061,174.66,152.536,172.328,153.529,169.874Z" transform="translate(-119.666 -142.131)" fill="#040000"/>
          <path id="パス_820" data-name="パス 820" d="M153.817,180.761a6.288,6.288,0,0,1-2.376-.605c-2.126-1.153-1.039-9.405-.815-11.474a41.018,41.018,0,0,1,1.142-6.44,5.871,5.871,0,0,1,1.514-2.849c1.508-1.039,5.743-.612,7.56-.414,4.232.458,8.533,3.494,8.022,8.2a4.37,4.37,0,0,1-.848,2.255,8.412,8.412,0,0,1-2.957,2.4c-.132.05-.636.313-.653.469-.022.219.767,1.129.934,1.339.8,1.1,1.861,5.94,1.712,7.321-.121,1.1-3.367.9-4.149.818-4.044-.438-.489-7.759-5.725-8.327-.782-.085-1.01,2.014-1.069,2.578-.083.752-.075,1.548-.158,2.33C155.792,179.8,155.571,180.951,153.817,180.761Zm3.246-13.252c-.064.6-.1,1.512.682,1.6,2.29.248,4.478.23,4.785-2.589.182-1.661-1.368-2.878-2.874-3.04l-.907-.1c-.973-.105-1.3.59-1.394,1.436Z" transform="translate(-105.237 -138.875)" fill="#040000"/>
          <path id="パス_821" data-name="パス 821" d="M168.666,171.873c.151,1.6.48,6.1-.053,7.509a2.668,2.668,0,0,1-2.4,1.777,4.524,4.524,0,0,1-2.266-.2c-1.556-.708-2.2-6.887-2.354-8.517-.129-1.35-.316-2.663-.443-4.011-.171-1.821-.662-7.7.971-8.831a3.215,3.215,0,0,1,1.6-.53,3.612,3.612,0,0,1,2.172.206c1.493.714,2.113,5.6,2.255,7.134Z" transform="translate(-92.363 -138.537)" fill="#040000"/>
          <path id="パス_822" data-name="パス 822" d="M172.611,164.8c.905,3.084,10.295-.855,12.257,5.83,1.271,4.325-1.762,8.2-5.846,9.405-4.024,1.179-7.511,1.613-8.934-3.228-.077-.272-.127-.552.206-.649a9.982,9.982,0,0,1,2.946-.145,12.164,12.164,0,0,0,3.553-.318c1.12-.331,2.4-1.133,2-2.494a1.666,1.666,0,0,0-1.122-1.247,8.062,8.062,0,0,0-2.845-.182c-3.213.024-7.325-1.333-8.32-4.721-1.3-4.445,2.291-7.866,6.253-9.03,3.689-1.083,7.036-2,8.41,2.689a.708.708,0,0,1-.563.986,11.889,11.889,0,0,1-2.8.3,16.094,16.094,0,0,0-3.47.493C173.24,162.806,172.236,163.527,172.611,164.8Z" transform="translate(-86.072 -140.753)" fill="#040000"/>
          <path id="パス_823" data-name="パス 823" d="M188.541,170.379c1.5-.864,2.987-1.826,4.493-2.687,1.339-.769,1.778-.511,2.514.772,1.3,2.271-1.03,4.156-2.808,5.177-1.94,1.113-4.116,2.582-6.345,2.88-2.492.34-3.983-.986-5.3-2.957-.853-1.293-1.648-2.617-2.417-3.958-.627-1.094-1.267-2.144-1.9-3.235-3.954-6.891-.87-8.734,5.008-12.11a5.809,5.809,0,0,1,4.3-.87,3.442,3.442,0,0,1,1.821,1.716c.677,1.177-1.116,2.17-1.937,2.641-.9.517-1.883.9-2.784,1.418-1.558.894-2.312,1.291-1.26,3.121.769,1.341,2.457.48,3.441-.085.82-.471,1.593-1.024,2.413-1.495a2.75,2.75,0,0,1,2.334-.432c.476.2.931.993,1.184,1.429a2.5,2.5,0,0,1,.381,1.236c-.081,1.063-2.909,2.468-3.783,2.972-.684.392-2.071,1.078-2.339,1.815a1.324,1.324,0,0,0,.05.846,6.291,6.291,0,0,0,.592,1.221A1.5,1.5,0,0,0,188.541,170.379Z" transform="translate(-75.606 -145.401)" fill="#040000"/>
          <path id="パス_824" data-name="パス 824" d="M194.684,158.538c1.05,1.216,3.921,4.69,4.307,6.15a2.669,2.669,0,0,1-.925,2.838,4.509,4.509,0,0,1-1.964,1.151c-1.677.324-5.782-4.338-6.852-5.58-.888-1.026-1.8-1.988-2.683-3.014-1.2-1.385-5-5.889-4.325-7.763a3.226,3.226,0,0,1,1-1.357,3.6,3.6,0,0,1,1.891-1.089c1.631-.283,4.962,3.34,5.971,4.509Z" transform="translate(-67.081 -149.439)" fill="#040000"/>
        </g>
      </g>
    </g>
    <g id="グループ_1847" data-name="グループ 1847">
      <g id="グループ_1574" data-name="グループ 1574" transform="translate(92 230.172)">
        <path id="パス_833" data-name="パス 833" d="M573.73,384.918q-9.423,2.692-14.134,5.889c-2.86,1.907-4.264,3.814-4.264,5.609a2.33,2.33,0,0,0,1.8,2.243,24.579,24.579,0,0,0,8.244,1.4,21.2,21.2,0,0,0,4.825-.561,46.248,46.248,0,0,1,6.281-1.121,4.5,4.5,0,0,1,3.142,1.907,6.047,6.047,0,0,1,1.346,3.029c-.112.617-.9,1.178-2.243,1.627-2.187.785-5.5,1.122-9.929,1.122a26.745,26.745,0,0,1-12.843-3.2c-3.03-1.57-4.488-3.59-4.488-6.115a8.232,8.232,0,0,1,2.076-5.383c.9-1.122,3.029-2.636,6.338-4.543a3.349,3.349,0,0,1-.338-1.626,14.577,14.577,0,0,1,.338-2.637c.055-.9.112-2.635.112-5.215a55.662,55.662,0,0,0-.336-8.414,10.436,10.436,0,0,1-.953-2.973c0-.5.168-.784.561-.784a9.688,9.688,0,0,1,3.926,1.008c2.019.955,3.029,1.963,3.029,2.974a3.274,3.274,0,0,1-.561,1.4c-.393.618-.562,2.412-.562,5.384,0,4.038,0,6.339.113,6.9a5.647,5.647,0,0,0,.224,1.008c.9-.393,2.244-1.064,4.15-1.962q3.784-1.768,4.038-3.03c-.112-.111-.112-.279-.112-.5a.923.923,0,0,1-.112-.561c0-.449.224-.673.729-.673a9.858,9.858,0,0,1,4.319,1.177c1.795.9,2.8,1.908,2.972,3.03C581.414,382.282,578.834,383.458,573.73,384.918Z" transform="translate(-551.462 -360.351)" fill="#231815"/>
        <path id="パス_834" data-name="パス 834" d="M618.587,402.165a26.814,26.814,0,0,1-7.347,8.862,54.675,54.675,0,0,0,3.646-10.1,56.059,56.059,0,0,0,1.795-13.741c0-4.431-.336-7.516-.953-9.2-.561-1.458-1.178-2.244-1.851-2.244-1.234.055-2.636,1.066-4.207,3.085a20.831,20.831,0,0,0-4.207,11.217c-.224,1.907-.561,2.915-1.066,2.973-.953,0-1.907-.729-2.917-2.076a9.074,9.074,0,0,1-1.01-4.542c0-1.4.841-4.431,2.523-9.03a77.334,77.334,0,0,0,2.749-8.413c-.169-1.572-.28-2.693-.393-3.479a9.648,9.648,0,0,1-.338-1.906c0-.786.393-1.235,1.29-1.235.73,0,1.628.842,2.693,2.468a10.266,10.266,0,0,1,1.514,3.591,40.543,40.543,0,0,1-2.3,4.822,9.107,9.107,0,0,0-1.29,4.039c0,.337,0,.5.112.5a17.066,17.066,0,0,1,3.87-4.431,7.239,7.239,0,0,1,4.038-1.347c4.711,0,7.123,5.386,7.123,16.1A29.728,29.728,0,0,1,618.587,402.165Z" transform="translate(-547.693 -360.829)" fill="#231815"/>
        <path id="パス_835" data-name="パス 835" d="M643.2,366.655a19.421,19.421,0,0,1,4.878,1.851,3.365,3.365,0,0,1,1.347,2.862,2.394,2.394,0,0,1-.953,1.683,3.75,3.75,0,0,1-2.131.729,1.838,1.838,0,0,1-1.458-.785,23.176,23.176,0,0,1-4.094-5.553,1.066,1.066,0,0,1-.393-.673c.056-.282.224-.45.449-.45A9.887,9.887,0,0,1,643.2,366.655ZM638.09,378.49a18.939,18.939,0,0,1,4.769,1.907,3.813,3.813,0,0,1,1.29,3.028,2.4,2.4,0,0,1-.954,1.683,3.742,3.742,0,0,1-2.133.729,1.823,1.823,0,0,1-1.4-.784,27.548,27.548,0,0,1-3.927-5.777,1.234,1.234,0,0,1-.335-.673.4.4,0,0,1,.393-.449A9.413,9.413,0,0,1,638.09,378.49Zm9.76,9.759a8.369,8.369,0,0,1-.729,2.354c-2.86,6.788-4.6,11.107-5.272,12.957a22.6,22.6,0,0,0-.955,3.477c-.561,1.907-1.122,2.917-1.794,2.917s-1.516-1.01-2.469-3.029a17.282,17.282,0,0,1-1.458-5.328,1.392,1.392,0,0,1,.618-1.29,10.52,10.52,0,0,0,3.029-2.133,117.562,117.562,0,0,0,8.357-10.152.844.844,0,0,1,.449-.223A.5.5,0,0,1,647.851,388.249Zm25.352-21.2c.9.673,1.4,1.234,1.4,1.683a3.669,3.669,0,0,1-.224,1.179c-.168.448-.393.729-.673.784-2.3.561-4.655,1.067-7.067,1.458-.056.73-.112,1.459-.168,2.243a1.036,1.036,0,0,0,.393-.111,7.778,7.778,0,0,1,1.57-.282c2.636,0,3.982.954,3.982,2.862,0,.335-.281.561-.841.672-1.851.393-3.646.729-5.328.955-.056.841-.112,1.739-.112,2.636,4.824-.674,8.694-1.346,11.666-2.019.336,0,.561-.056.729-.056a8.34,8.34,0,0,1,3.646,1.122,4.12,4.12,0,0,1,1.851,3.029c0,1.178-.449,1.739-1.346,1.739s-2.355-.112-4.487-.336a28.893,28.893,0,0,0-3.365-.282,110.14,110.14,0,0,0-13.573.674,62.925,62.925,0,0,0-8.693,1.738,4.385,4.385,0,0,1-1.851.393,4.246,4.246,0,0,1-2.86-1.513c-.9-.953-1.29-1.628-1.29-1.963,0-.28.112-.449.449-.449a133.1,133.1,0,0,0,14.022-1.4c0-.9.056-1.795.112-2.637a34.153,34.153,0,0,1-3.421.338,3.424,3.424,0,0,1-2.3-.842,2.033,2.033,0,0,1-.785-1.569c0-.224.112-.393.449-.45,2.131-.279,4.151-.617,6.114-1.064,0-.9.056-1.795.056-2.58a25.754,25.754,0,0,1-3.534.335c-2.131,0-3.477-.5-4.094-1.625a2.939,2.939,0,0,1-.729-1.4c0-.279.112-.448.449-.448,3.029-.168,5.665-.394,7.908-.729a29.578,29.578,0,0,0-.224-3.423,14.392,14.392,0,0,0-1.01-2.074,2.559,2.559,0,0,1-.561-1.235c0-.9.337-1.345,1.122-1.345a9.357,9.357,0,0,1,4.207,1.066q3.029,1.092,3.029,2.019a6.178,6.178,0,0,0-.112,1.064,11.954,11.954,0,0,0-.617,2.748,25.223,25.223,0,0,0,3.309-1.122,2.553,2.553,0,0,1,1.122-.279A5.107,5.107,0,0,1,673.2,367.047Zm-15.929,21.427a4.43,4.43,0,0,1,1.009.224c.056,0,.112-.056.168-.056,2.356-.393,4.711-.9,7.067-1.458a11.458,11.458,0,0,0,2.58-.9,1.865,1.865,0,0,1,.561-.224,12.394,12.394,0,0,1,3.309.953q2.86,1.513,2.861,2.524a.607.607,0,0,1-.168.393c-.5,1.122-.729,3.365-.729,6.618a54.379,54.379,0,0,0,.617,5.44,43.584,43.584,0,0,1,.5,4.88,8.02,8.02,0,0,1-1.626,3.7q-2.019,2.187-3.2,2.187c-4.15-4.15-6.17-6.338-6.17-6.562,0-.282.056-.449.224-.449a15.411,15.411,0,0,0,3.758.9c.392,0,.617-.393.729-1.178a44.226,44.226,0,0,0,.337-7.011,63.017,63.017,0,0,0-.673-7.8c0-.28-.392-.449-1.066-.449s-1.682.112-3.029.223a41.547,41.547,0,0,0-5.553,1.179,16.549,16.549,0,0,0-.112,2.356v.393a39.341,39.341,0,0,0,4.094-1.122,2.768,2.768,0,0,1,.841-.168c2.356,0,3.534.9,3.534,2.636,0,.224-.168.393-.449.449-1.907.449-3.646.728-5.272.953a22.289,22.289,0,0,1-2.58.335h-.224c-.056,1.011-.112,1.852-.112,2.637a38.865,38.865,0,0,0,4.431-.954,3.44,3.44,0,0,1,.9-.168c2.356,0,3.534.9,3.534,2.636,0,.224-.168.393-.5.393-2.019.393-3.926.673-5.665.841a20.743,20.743,0,0,1-2.8.28h-.168a28.235,28.235,0,0,1-1.4,6.618,2.764,2.764,0,0,1-2.187,1.514,2.225,2.225,0,0,1-2.019-1.57,6.658,6.658,0,0,1-.617-3.029,3.108,3.108,0,0,1,.168-.954,21.229,21.229,0,0,0,1.851-5.609,50.013,50.013,0,0,0,.393-6.787,11.783,11.783,0,0,0-.28-2.412,7.2,7.2,0,0,1-.561-1.963c0-.561.168-.9.617-.9A8.523,8.523,0,0,1,657.274,388.474Z" transform="translate(-539.435 -361.047)" fill="#231815"/>
      </g>
      <g id="グループ_1846" data-name="グループ 1846" transform="translate(-3 2)">
        <path id="パス_929" data-name="パス 929" d="M3.32-11.48a4.4,4.4,0,0,0,2.32-.5v-.5h8.98v.72h.48a6.21,6.21,0,0,0,1.24-.12l-.92,1.28H5.86l-2.62-.88Zm2.1,1.44H18.84c.3,0,.52-.1.58-.32-.6-.56-1.5-1.32-2.04-1.8.08-.04.12-.06.12-.1v-3.18c.54-.1.68-.3.72-.56l-3.6-.3v3.26H11.5v-3.2c.56-.1.7-.3.74-.58l-3.58-.26v4.04H5.64v-2.42c.56-.08.7-.28.74-.56L2.86-16.3v4.7l-.34-.12v4.58c0,2.82-.16,6.2-2.08,8.82l.14.14C5.06-.46,5.42-4.4,5.42-7.14ZM7.6-8.66a2.659,2.659,0,0,1-1.16,2.5A1.55,1.55,0,0,0,5.42-4.3a1.443,1.443,0,0,0,2.12.76c1.08-.6,1.66-2.54.3-5.14Zm7.92-.12a34.622,34.622,0,0,1-1.88,3.94,10.225,10.225,0,0,1-.98-3.88c.44-.06.64-.24.68-.54l-3.7-.3C9.6-4.36,9.92-1,3.4,1.58l.14.26c7.48-1.62,8.7-4.34,9-8.24.44,4,1.54,6.98,4.88,8.3A2.753,2.753,0,0,1,19.66-.82v-.26c-2.84-.6-4.62-1.62-5.68-3.22a21.057,21.057,0,0,0,4.1-2.4.786.786,0,0,0,.88-.3Zm9.74-5.06a5.347,5.347,0,0,1-1.94,4.52A1.764,1.764,0,0,0,22.64-7a1.767,1.767,0,0,0,2.8.32c1.26-1.16,1.86-3.62,0-7.18Zm11.02.18a38.113,38.113,0,0,1-3.28,6,25.9,25.9,0,0,1-1.4-8.1v-.3c.5-.08.7-.26.76-.58l-4-.36c0,8.18.58,13.98-7.16,18.62l.16.26c8.2-2.76,9.74-7.08,10.1-12.84C31.94-4.54,33.34-.3,37.94,1.9A3.376,3.376,0,0,1,40.54-1l.02-.22c-3.88-1.18-6.12-3.08-7.42-6.1a33.754,33.754,0,0,0,5.82-3.86c.5.08.7-.06.78-.26Zm16.4,4.64h3.26v3.2H52.68Zm4.7,3.76h3.44c.28,0,.48-.1.54-.32-.66-.74-1.88-1.86-1.88-1.86L58.5-5.92v-3.1h2.38c.28,0,.48-.1.52-.32-.6-.72-1.74-1.82-1.74-1.82l-1,1.58H58.5V-11.7c.46-.08.58-.26.6-.5l-3.16-.26v2.88H52.68V-11.7a1.152,1.152,0,0,0,.34-.1v.76h.48a3.833,3.833,0,0,0,2.22-.58v-2.12h4.66c.28,0,.5-.1.56-.32-.84-.8-2.28-1.98-2.28-1.98L57.38-14.3H55.72v-1.94c.42-.06.54-.24.56-.44l-3.26-.28v2.66H48.46l.16.56h4.4v1.52l-2.92-.24v.28l-2.14-1.4c-.14.82-.5,2.54-.84,3.82.04-1.84.02-3.9.04-6.18.46-.08.7-.24.74-.58l-3.38-.3c0,2.46.04,4.66.04,6.66a8.3,8.3,0,0,0-1.16-2.62l-.24.04a5.155,5.155,0,0,1-.6,3.08c-1.46,1.64.28,3.26,1.52,2.04a2.067,2.067,0,0,0,.46-.78c-.1,4.24-.56,7.4-2.46,9.96l.2.28a9.41,9.41,0,0,0,4.38-6.6,8.127,8.127,0,0,1,.68,3.3C49.5.56,52.04-3.7,46.8-5.62a29.719,29.719,0,0,0,.3-3.48l.02.02a28.473,28.473,0,0,0,2.96-2.42h.02v1.92H47.96l.16.56H50.1v3.2h-2l.16.56h2.68c-.08,2.72-.32,5-5,6.96l.18.26C52.64.42,53.5-2.1,53.78-5.26h1.04v4.8c0,1.56.26,2.06,2.1,2.06h1.22c2.38,0,3.18-.5,3.18-1.44a1.011,1.011,0,0,0-.7-1.06l-.06-2.22h-.22a13.116,13.116,0,0,1-.86,2.14.406.406,0,0,1-.4.22H57.74c-.3,0-.36-.08-.36-.3Z" transform="translate(0 263)" fill="#231815"/>
        <g id="長方形_1281" data-name="長方形 1281" transform="translate(-11 239)" fill="none" stroke="#231815" stroke-width="2">
          <rect width="84" height="32" stroke="none"/>
          <rect x="1" y="1" width="82" height="30" fill="none"/>
        </g>
      </g>
    </g>
  </g>
</svg>
