<svg xmlns="http://www.w3.org/2000/svg" width="149.851" height="150.673" viewBox="0 0 149.851 150.673">
  <g id="グループ_1646" data-name="グループ 1646" transform="translate(71.664 150.673) rotate(-137)">
    <g id="グループ_1553" data-name="グループ 1553" transform="translate(0)">
      <g id="グループ_1547" data-name="グループ 1547">
        <g id="グループ_1546" data-name="グループ 1546" opacity="0.96">
          <path id="パス_798" data-name="パス 798" d="M93.778,47.108c4.2,5.856,5.5,12.307,2.79,14.434-.928.727-2.76,1.307-5.7-1.215,4.794,10.566,3.98,12.5,2.839,13.482-1.672,1.443-4.19-.446-5.14-1.158a68.225,68.225,0,0,0-9.474-6.27c-2.484-1.234-3.368-1.037-3.633-.894-1.33.716-1.02,5.9-.693,11.393.064,1.077.132,2.212.2,3.4a16.847,16.847,0,0,1-.665,5.514c8.089,11.818,5.856,17.022,3.8,19.07-2.246,2.242-5.832,2.482-8.892,1.519,1.411,4.653,1.383,6.725.064,7.764-1.846,1.455-4.757-.4-10.042-3.765-1.058-.676-2.216-1.413-3.446-2.174-.5,2.327-1.453,4.645-3.527,4.9-2.363.28-4.849-2.312-8.064-8.414-2.125-4.033-3.72-8.053-3.786-8.221-.006-.017-.008-.034-.013-.049q-1.01-.558-2-1.179a45.239,45.239,0,0,1-4.065-2.89.4.4,0,0,1-.04.045l-7.936,6.8a1.3,1.3,0,0,1-2.15-.99V84.591L10.723,85.63a1.3,1.3,0,0,1-1.107-2.123l8.8-10.76q-.3-.532-.576-1.06c-3.425,2.295-9.279,1.749-13.11-.23-2.407-1.241-3.618-2.89-3.412-4.636.155-1.319,1.067-2.456,2.758-3.429a5.945,5.945,0,0,1-3.489-2.58,4.929,4.929,0,0,1,.472-5.359c1.47-2.15,4.8-4.36,9.7-4.358.3,0,.61.011.922.028a33.679,33.679,0,0,1,.157-4.936,28.13,28.13,0,0,1,7.093-16.163,42.712,42.712,0,0,1,8.8-7.373,1.41,1.41,0,0,1,.376-.157,15.652,15.652,0,0,1,.576-1.662l-2.295-2.142L16.7,25.062a.993.993,0,0,1-1.426-1.29l4.479-8.561L12.378,7.932a.992.992,0,0,1,.971-1.659L22.224,8.82,24.113.765A.989.989,0,0,1,25.078,0h.013a.99.99,0,0,1,.958.79l2.318,11.185L35.838,16.3a10.921,10.921,0,0,1,3.755,1.834,1.432,1.432,0,0,1,.38-.13,39.878,39.878,0,0,1,6.767-.548,60.58,60.58,0,0,1,9.094.761,1.213,1.213,0,0,1,.261.068,8.867,8.867,0,0,1,6.211-2.956,7.536,7.536,0,0,1,2.775.55c.463-.667.931-1.349,1.377-2.012V.99a.994.994,0,0,1,.865-.984C67.365,0,67.41,0,67.45,0a.992.992,0,0,1,.958.739C69.5,4.9,71.066,9.723,71.842,10.862a38,38,0,0,0,6.315-3.873.991.991,0,0,1,1.5,1.162L76.875,15.36l7.862,5.454a.993.993,0,0,1-.852,1.766l-13.2-3.988-.2.285a12.008,12.008,0,0,1,1.942,2.877l.045.013C83.435,25.648,92.543,33.888,94.651,38.1c.994,2,3.111,6.827,1.213,8.605A2.022,2.022,0,0,1,93.778,47.108Z" fill="#fff"/>
        </g>
      </g>
      <g id="グループ_1552" data-name="グループ 1552">
        <g id="グループ_1548" data-name="グループ 1548" opacity="0.96">
          <path id="パス_799" data-name="パス 799" d="M93.778,47.108c4.2,5.856,5.5,12.307,2.79,14.434-.928.727-2.76,1.307-5.7-1.215,4.794,10.566,3.98,12.5,2.839,13.482-1.672,1.443-4.19-.446-5.14-1.158a68.225,68.225,0,0,0-9.474-6.27c-2.484-1.234-3.368-1.037-3.633-.894-1.33.716-1.02,5.9-.693,11.393.064,1.077.132,2.212.2,3.4a16.847,16.847,0,0,1-.665,5.514c8.089,11.818,5.856,17.022,3.8,19.07-2.246,2.242-5.832,2.482-8.892,1.519,1.411,4.653,1.383,6.725.064,7.764-1.846,1.455-4.757-.4-10.042-3.765-1.058-.676-2.216-1.413-3.446-2.174-.5,2.327-1.453,4.645-3.527,4.9-2.363.28-4.849-2.312-8.064-8.414-2.125-4.033-3.72-8.053-3.786-8.221-.006-.017-.008-.034-.013-.049q-1.01-.558-2-1.179a45.239,45.239,0,0,1-4.065-2.89.4.4,0,0,1-.04.045l-7.936,6.8a1.3,1.3,0,0,1-2.15-.99V84.591L10.723,85.63a1.3,1.3,0,0,1-1.107-2.123l8.8-10.76q-.3-.532-.576-1.06c-3.425,2.295-9.279,1.749-13.11-.23-2.407-1.241-3.618-2.89-3.412-4.636.155-1.319,1.067-2.456,2.758-3.429a5.945,5.945,0,0,1-3.489-2.58,4.929,4.929,0,0,1,.472-5.359c1.47-2.15,4.8-4.36,9.7-4.358.3,0,.61.011.922.028a33.679,33.679,0,0,1,.157-4.936,28.13,28.13,0,0,1,7.093-16.163,42.712,42.712,0,0,1,8.8-7.373,1.41,1.41,0,0,1,.376-.157,15.652,15.652,0,0,1,.576-1.662l-2.295-2.142L16.7,25.062a.993.993,0,0,1-1.426-1.29l4.479-8.561L12.378,7.932a.992.992,0,0,1,.971-1.659L22.224,8.82,24.113.765A.989.989,0,0,1,25.078,0h.013a.99.99,0,0,1,.958.79l2.318,11.185L35.838,16.3a10.921,10.921,0,0,1,3.755,1.834,1.432,1.432,0,0,1,.38-.13,39.878,39.878,0,0,1,6.767-.548,60.58,60.58,0,0,1,9.094.761,1.213,1.213,0,0,1,.261.068,8.867,8.867,0,0,1,6.211-2.956,7.536,7.536,0,0,1,2.775.55c.463-.667.931-1.349,1.377-2.012V.99a.994.994,0,0,1,.865-.984C67.365,0,67.41,0,67.45,0a.992.992,0,0,1,.958.739C69.5,4.9,71.066,9.723,71.842,10.862a38,38,0,0,0,6.315-3.873.991.991,0,0,1,1.5,1.162L76.875,15.36l7.862,5.454a.993.993,0,0,1-.852,1.766l-13.2-3.988-.2.285a12.008,12.008,0,0,1,1.942,2.877l.045.013C83.435,25.648,92.543,33.888,94.651,38.1c.994,2,3.111,6.827,1.213,8.605A2.022,2.022,0,0,1,93.778,47.108ZM46.5,103.487c3.761,7.131,5.42,7.027,5.442,7.027.253-.032,1.086-.941,1.589-4.6a1.3,1.3,0,0,1,1.961-.939c1.872,1.126,3.606,2.231,5.133,3.2,2.79,1.778,5.934,3.78,7,3.859.108-.5.076-2.18-1.829-7.715a1.3,1.3,0,0,1,1.972-1.5c2.424,1.676,6.506,2.165,8.491.187,2.346-2.339,1.211-7.473-3.094-14.219a23.591,23.591,0,0,1-5.233,7.135c-4,3.754-8.794,5.713-12.829,5.24a39.406,39.406,0,0,1-11.151-3C44.6,99.656,45.5,101.585,46.5,103.487ZM32.315,90.651a55.791,55.791,0,0,1-5.509-5.643V95.374Zm-7.947-8.686a76.766,76.766,0,0,1-4.56-6.808L13.559,82.8ZM3.21,56.925a2.486,2.486,0,0,0-.361,2.594c.793,1.385,3.4,2.065,6.978,1.817a1.3,1.3,0,0,1,.4,2.565c-5.945,1.462-6.3,3.051-6.321,3.228-.053.457.55,1.258,2.021,2.016,3.2,1.653,8.367,2.053,10.719.2a48.478,48.478,0,0,1-4.755-15.59C7.627,53.432,4.493,55.044,3.21,56.925ZM26.99,13.469a.988.988,0,0,1-.474-.657l-1.5-7.222-1.1,4.7a.99.99,0,0,1-1.239.729L16.538,9.253l5.127,5.061a.987.987,0,0,1,.181,1.164L18.8,21.3l7.15-4.7a.99.99,0,0,1,1.222.1L29.625,19a6.26,6.26,0,0,1,2.707-2.437Zm65.124,25.9C90.361,35.86,83.01,29.339,74.3,25.535c.036.072.072.145.11.219a1.3,1.3,0,1,1-2.307,1.207c-.461-.882-.856-1.7-1.2-2.42a18.888,18.888,0,0,0-1.953-3.47l-1.819,2.6A.992.992,0,1,1,65.5,22.533l3.967-5.669a1,1,0,0,1,1.1-.38l7.874,2.38L75.1,16.546a.993.993,0,0,1-.359-1.173l1.906-4.936c-2.144,1.4-4.243,2.558-5.2,2.452-.474-.053-1.337-.149-3.007-5.025V14.17a1,1,0,0,1-.168.55c-5.271,7.911-6.011,7.9-6.57,7.9a1.071,1.071,0,0,1-.9-.491.992.992,0,0,1,.293-1.373,1.012,1.012,0,0,1,.376-.147A24.108,24.108,0,0,0,63.494,18.1c-4.453-1.143-7.375,4.462-7.513,4.732a1.3,1.3,0,0,1-2.324-1.173c.13-.261.285-.54.459-.824a46.72,46.72,0,0,0-11.7-.314c.622.6,1.258,1.26,1.914,1.987a1.3,1.3,0,0,1-1.934,1.744c-3.78-4.186-6.937-6.092-8.894-5.361-2.887,1.075-3.672,7.673-3.716,9.9a1.306,1.306,0,0,1-1.3,1.277h-.025a1.3,1.3,0,0,1-1.277-1.328c.006-.293.034-1.213.181-2.431a41.357,41.357,0,0,0-6.34,5.637,25.288,25.288,0,0,0-6.359,14.54c-.81,7.617,1.3,16.014,6.274,24.953,9.032,16.24,20.64,25.3,34.5,26.914,3.211.376,7.163-1.3,10.56-4.492,4.086-3.833,6.381-8.858,6.138-13.439-.062-1.179-.127-2.305-.191-3.378-.465-7.785-.746-12.485,2.18-14.058,2.7-1.455,6.931.48,16.15,7.394a9.454,9.454,0,0,0,1.468.943c-.062-1.011-.635-3.737-3.8-10.594-2.25-4.878-4.685-9.387-4.708-9.434a1.417,1.417,0,0,1,2.344-1.57c.028.034,2.83,3.455,4.677,5.794,2.924,3.708,4.443,3.89,4.575,3.789.756-.595.559-5.582-3.971-11.393-1.3-1.666-2.2-2.9-2.743-3.765-.45-.716-1.292-2.048-.314-3.026,1-1,2.307-.1,3.009.378.646.442,1.4,1.037,2.135,1.608.253.2.523.41.773.6A16.751,16.751,0,0,0,92.114,39.368Z" fill="#221714"/>
        </g>
        <g id="グループ_1549" data-name="グループ 1549" transform="translate(43.217 30.892)" opacity="0.96">
          <path id="パス_800" data-name="パス 800" d="M25.243,24.174c-1.428.816-3.372.9-5.7.272,5.811,6.793,6.313,9.381,5.078,10.911-1.132,1.4-3.572,2.006-13.666-3.06C5.731,29.675.733,26.655.685,26.628A1.417,1.417,0,1,1,2.151,24.2c.045.028,4.517,2.728,9.37,5.206,7.539,3.848,10.076,4.143,10.787,4.1-.155-.837-1.39-3.695-9.451-12.217A1.418,1.418,0,0,1,14.629,19.1c4.9,3.007,8.025,3.285,9.209,2.607a1.242,1.242,0,0,0,.621-1.254c-.036-2.2-2.769-5.981-8.68-9.094a1.417,1.417,0,0,1,.833-2.66,5.638,5.638,0,0,0,2.62-.083c-.306-1.05-3.674-4.235-9.765-5.83A1.418,1.418,0,0,1,9.825,0a1.391,1.391,0,0,1,.359.047c6.264,1.64,12.523,5.735,11.858,9.209A2.528,2.528,0,0,1,20.7,11.068c4.052,2.907,6.544,6.355,6.6,9.341A4.108,4.108,0,0,1,25.243,24.174Z" fill="#221714"/>
        </g>
        <g id="グループ_1550" data-name="グループ 1550" transform="translate(32.136 58.905)" opacity="0.96">
          <path id="パス_801" data-name="パス 801" d="M17.1,6.78a10.946,10.946,0,0,1-2.588,9.734,8.306,8.306,0,0,1-7.651,2.509A7.913,7.913,0,0,1,1.131,14.9,10.645,10.645,0,0,1,.918,5.792,9.371,9.371,0,0,1,9.147,0h.015A8.317,8.317,0,0,1,17.1,6.78ZM9.152,2.6A6.827,6.827,0,0,0,3.3,6.84a8.105,8.105,0,0,0,.121,6.831,5.289,5.289,0,0,0,3.886,2.786,6.563,6.563,0,0,0,1.137.1,5.683,5.683,0,0,0,4.184-1.842,8.292,8.292,0,0,0,1.933-7.364A5.729,5.729,0,0,0,9.152,2.6Z" transform="translate(0 0)" fill="#221714"/>
        </g>
        <line id="線_55" data-name="線 55" x2="9" y2="2" transform="translate(40.5 84.88)" fill="none" stroke="#221714" stroke-linecap="round" stroke-width="3"/>
      </g>
    </g>
    <g id="グループ_1554" data-name="グループ 1554" transform="translate(34.747 61.51)">
      <path id="パス_803" data-name="パス 803" d="M6.541,0A6.827,6.827,0,0,0,.694,4.235a8.106,8.106,0,0,0,.121,6.831A5.289,5.289,0,0,0,4.7,13.851a6.563,6.563,0,0,0,1.137.1,5.683,5.683,0,0,0,4.184-1.842,8.292,8.292,0,0,0,1.934-7.364A5.729,5.729,0,0,0,6.541,0Z" transform="translate(0 0)" fill="#d7508e"/>
    </g>
    <g id="グループ_1555" data-name="グループ 1555" transform="translate(26.805 85.008)">
      <path id="パス_804" data-name="パス 804" d="M5.51,5.643A55.793,55.793,0,0,1,0,0V10.367Z" fill="#f3e727"/>
    </g>
    <g id="グループ_1556" data-name="グループ 1556" transform="translate(13.559 75.157)">
      <path id="パス_805" data-name="パス 805" d="M10.809,6.808A76.789,76.789,0,0,1,6.249,0L0,7.641Z" fill="#f3e727"/>
    </g>
    <g id="グループ_1557" data-name="グループ 1557" transform="translate(2.608 53.71)">
      <path id="パス_806" data-name="パス 806" d="M.6,3.215A2.487,2.487,0,0,0,.241,5.809c.792,1.385,3.4,2.065,6.978,1.817a1.3,1.3,0,0,1,.4,2.565c-5.945,1.462-6.3,3.051-6.321,3.228-.053.457.55,1.258,2.021,2.016,3.2,1.653,8.367,2.052,10.72.2A48.478,48.478,0,0,1,9.281.04C5.019-.278,1.885,1.334.6,3.215Z" transform="translate(0 0)" fill="#d61518"/>
    </g>
    <g id="グループ_1558" data-name="グループ 1558" transform="translate(43.948 88.796)">
      <path id="パス_807" data-name="パス 807" d="M2.55,14.691c3.761,7.131,5.42,7.027,5.442,7.027.253-.032,1.086-.941,1.589-4.6a1.3,1.3,0,0,1,1.961-.939c1.872,1.126,3.606,2.231,5.133,3.2,2.79,1.778,5.934,3.78,7,3.859.108-.5.076-2.18-1.829-7.715a1.3,1.3,0,0,1,1.972-1.5c2.424,1.676,6.506,2.165,8.491.187C34.653,11.88,33.518,6.746,29.213,0A23.593,23.593,0,0,1,23.98,7.135c-4,3.754-8.795,5.714-12.829,5.24A39.4,39.4,0,0,1,0,9.372C.654,10.86,1.549,12.789,2.55,14.691Z" fill="#d61518"/>
    </g>
    <g id="グループ_1559" data-name="グループ 1559" transform="translate(16.538 5.59)">
      <path id="パス_808" data-name="パス 808" d="M10.452,7.879a.988.988,0,0,1-.474-.657L8.48,0l-1.1,4.7a.99.99,0,0,1-1.239.729L0,3.663,5.127,8.724a.987.987,0,0,1,.181,1.164L2.263,15.713l7.15-4.7a.99.99,0,0,1,1.222.1l2.452,2.29a6.26,6.26,0,0,1,2.707-2.437Z" fill="#f3e727"/>
    </g>
    <g id="グループ_1560" data-name="グループ 1560" transform="translate(63.332 7.864)">
      <path id="パス_809" data-name="パス 809" d="M2.172,14.67,6.139,9a1,1,0,0,1,1.1-.38L15.113,11,11.771,8.682a.993.993,0,0,1-.359-1.173l1.906-4.936c-2.144,1.4-4.243,2.558-5.2,2.452C7.643,4.972,6.78,4.876,5.11,0V6.306a1,1,0,0,1-.168.55A65.388,65.388,0,0,1,0,13.652" fill="#f3e727"/>
    </g>
  </g>
</svg>
