<svg xmlns="http://www.w3.org/2000/svg" width="106.757" height="143.963" viewBox="0 0 106.757 143.963">
  <g id="グループ_1791" data-name="グループ 1791" transform="translate(-389.799 -1415.774)">
    <g id="グループ_1789" data-name="グループ 1789" transform="translate(773.767 1189.144)">
      <g id="グループ_1782" data-name="グループ 1782" transform="translate(-382.767 270.502)">
        <g id="グループ_1778" data-name="グループ 1778">
          <g id="グループ_1777" data-name="グループ 1777" opacity="0.96">
            <path id="パス_906" data-name="パス 906" d="M-304.747,370.566c.016,0,.032-.008.047-.013,11.811-4.184,21.625-13.059,23.893-17.6,1.074-2.148,3.352-7.353,1.307-9.27a2.173,2.173,0,0,0-2.245-.433c4.524-6.31,5.924-13.258,3-15.549-1-.783-2.972-1.407-6.142,1.309,5.163-11.382,4.286-13.464,3.059-14.522-1.8-1.555-4.516.48-5.539,1.247a73.472,73.472,0,0,1-10.207,6.755c-2.676,1.329-3.629,1.116-3.913.963-1.432-.77-1.1-6.357-.746-12.273.069-1.161.142-2.383.21-3.66a18.13,18.13,0,0,0-.715-5.939c8.712-12.732,6.308-18.336,4.093-20.544-2.42-2.413-6.284-2.672-9.579-1.635,1.518-5.012,1.488-7.245.068-8.364-1.99-1.567-5.124.429-10.816,4.056-1.141.727-2.388,1.522-3.714,2.341-.539-2.505-1.566-5-3.8-5.273-2.545-.3-5.222,2.49-8.686,9.065-2.288,4.343-4.006,8.674-4.079,8.855-.007.017-.009.035-.015.052q-1.086.6-2.148,1.27a48.8,48.8,0,0,0-4.376,3.112c-.017-.016-.029-.033-.046-.048l-8.548-7.327a1.4,1.4,0,0,0-1.5-.209,1.4,1.4,0,0,0-.816,1.274v14.666l-14.517-1.119a1.393,1.393,0,0,0-1.352.749,1.4,1.4,0,0,0,.158,1.537l9.48,11.591c-.212.381-.417.762-.62,1.142-3.689-2.473-9.994-1.884-14.121.246-2.593,1.338-3.9,3.112-3.676,5,.168,1.42,1.149,2.644,2.972,3.694a6.4,6.4,0,0,0-3.758,2.778,5.307,5.307,0,0,0,.507,5.774c1.583,2.315,5.167,4.7,10.452,4.694.325,0,.658-.012,1-.03a36.334,36.334,0,0,0,.166,5.316,30.305,30.305,0,0,0,7.643,17.412,45.941,45.941,0,0,0,9.476,7.942,1.513,1.513,0,0,0,.405.169" transform="translate(382.767 -270.502)" fill="#fff"/>
          </g>
        </g>
        <g id="グループ_1779" data-name="グループ 1779" transform="translate(37.439 42.187)">
          <path id="パス_907" data-name="パス 907" d="M-327.565,339.792a7.353,7.353,0,0,1-6.3-4.561,8.721,8.721,0,0,1,.131-7.359,5.7,5.7,0,0,1,4.187-3,7.065,7.065,0,0,1,1.224-.109,6.12,6.12,0,0,1,4.506,1.984,8.922,8.922,0,0,1,2.081,7.935A6.167,6.167,0,0,1-327.565,339.792Z" transform="translate(334.614 -324.762)" fill="#c9397d"/>
        </g>
        <g id="グループ_1780" data-name="グループ 1780" transform="translate(2.819 47.46)">
          <path id="パス_908" data-name="パス 908" d="M-378.493,346.242a2.682,2.682,0,0,1-.389-2.794c.855-1.493,3.665-2.226,7.515-1.958a1.4,1.4,0,0,0,1.483-1.183,1.4,1.4,0,0,0-1.051-1.58c-6.4-1.576-6.787-3.286-6.808-3.475-.058-.493.592-1.355,2.176-2.174,3.45-1.78,9.013-2.212,11.547-.21a52.187,52.187,0,0,0-5.124,16.792C-373.735,350.006-377.109,348.268-378.493,346.242Z" transform="translate(379.141 -331.545)" fill="#cb0011"/>
        </g>
        <g id="グループ_1781" data-name="グループ 1781" transform="translate(47.351 2.787)">
          <path id="パス_909" data-name="パス 909" d="M-319.116,283.3c4.051-7.682,5.838-7.568,5.86-7.568.271.033,1.171,1.013,1.713,4.952a1.4,1.4,0,0,0,.784,1.074,1.406,1.406,0,0,0,1.329-.063c2.017-1.212,3.884-2.4,5.53-3.45,3.007-1.916,6.393-4.073,7.54-4.156.116.536.081,2.348-1.971,8.309a1.4,1.4,0,0,0,.478,1.574,1.4,1.4,0,0,0,1.646.037c2.612-1.8,7.009-2.33,9.146-.2,2.528,2.521,1.3,8.052-3.332,15.317a25.443,25.443,0,0,0-5.636-7.685c-4.31-4.043-9.477-6.154-13.823-5.645a42.539,42.539,0,0,0-12.011,3.234C-321.158,287.426-320.2,285.347-319.116,283.3Z" transform="translate(321.864 -274.087)" fill="#cb0011"/>
        </g>
        <path id="パス_910" data-name="パス 910" d="M-319.831,316.461a1.543,1.543,0,0,1-1.006-.371l-5.575-4.739a1.555,1.555,0,0,1-.177-2.193,1.555,1.555,0,0,1,2.192-.176l5.574,4.74a1.555,1.555,0,0,1,.178,2.192A1.553,1.553,0,0,1-319.831,316.461Z" transform="translate(370.349 -278.982)" fill="#1b1311" opacity="0.92"/>
      </g>
      <g id="グループ_1783" data-name="グループ 1783" transform="translate(-353.938 291.169)">
        <path id="パス_911" data-name="パス 911" d="M-339.752,302.171a60.507,60.507,0,0,0-5.935,6.079V297.084Z" transform="translate(345.687 -297.084)" fill="#fee10c"/>
      </g>
      <g id="グループ_1784" data-name="グループ 1784" transform="translate(-368.207 304.715)">
        <path id="パス_912" data-name="パス 912" d="M-352.395,315.4a82.383,82.383,0,0,0-4.913,7.332l-6.732-8.23Z" transform="translate(364.04 -314.507)" fill="#fee10c"/>
      </g>
      <g id="グループ_1788" data-name="グループ 1788" transform="translate(-382.767 270.502)">
        <g id="グループ_1785" data-name="グループ 1785" opacity="0.96">
          <path id="パス_913" data-name="パス 913" d="M-304.738,370.593c11.812-4.184,21.663-13.1,23.931-17.637,1.074-2.148,3.352-7.353,1.307-9.27a2.173,2.173,0,0,0-2.245-.433c4.524-6.31,5.924-13.258,3-15.549-1-.783-2.972-1.407-6.142,1.309,5.163-11.382,4.286-13.464,3.059-14.522-1.8-1.555-4.516.48-5.539,1.247a73.472,73.472,0,0,1-10.207,6.755c-2.676,1.329-3.629,1.116-3.913.963-1.432-.77-1.1-6.357-.746-12.273.069-1.161.142-2.383.21-3.66a18.13,18.13,0,0,0-.715-5.939c8.712-12.732,6.308-18.336,4.093-20.544-2.42-2.413-6.284-2.672-9.579-1.635,1.518-5.012,1.488-7.245.068-8.364-1.99-1.567-5.124.429-10.816,4.056-1.141.727-2.388,1.522-3.714,2.341-.539-2.505-1.566-5-3.8-5.273-2.545-.3-5.222,2.49-8.686,9.065-2.288,4.343-4.006,8.674-4.079,8.855-.007.017-.009.035-.015.052q-1.086.6-2.148,1.27a48.8,48.8,0,0,0-4.376,3.112c-.017-.016-.029-.033-.046-.048l-8.548-7.327a1.4,1.4,0,0,0-1.5-.209,1.4,1.4,0,0,0-.816,1.274v14.666l-14.517-1.119a1.393,1.393,0,0,0-1.352.749,1.4,1.4,0,0,0,.158,1.537l9.48,11.591c-.212.381-.417.762-.62,1.142-3.689-2.473-9.994-1.884-14.121.246-2.593,1.338-3.9,3.112-3.676,5,.168,1.42,1.149,2.644,2.972,3.694a6.4,6.4,0,0,0-3.758,2.778,5.307,5.307,0,0,0,.507,5.774c1.583,2.315,5.167,4.7,10.452,4.694.325,0,.658-.012,1-.03a36.334,36.334,0,0,0,.166,5.316,30.305,30.305,0,0,0,7.643,17.412,45.941,45.941,0,0,0,9.476,7.942,1.513,1.513,0,0,0,.405.169m19.811-87.246c4.05-7.682,5.838-7.568,5.86-7.568.271.033,1.17,1.012,1.713,4.952a1.4,1.4,0,0,0,.784,1.074,1.4,1.4,0,0,0,1.328-.063c2.018-1.213,3.884-2.4,5.531-3.451,3.006-1.916,6.392-4.073,7.54-4.156.115.536.081,2.348-1.972,8.309a1.4,1.4,0,0,0,.479,1.574,1.4,1.4,0,0,0,1.645.037c2.612-1.8,7.009-2.331,9.146-.2,2.528,2.521,1.3,8.052-3.331,15.317a25.424,25.424,0,0,0-5.637-7.685c-4.31-4.043-9.477-6.154-13.822-5.645a42.536,42.536,0,0,0-12.011,3.234C-334.719,286.647-333.757,284.568-332.677,282.52Zm-15.279,13.828a60.436,60.436,0,0,0-5.935,6.079V291.26Zm-8.559,9.357a82.286,82.286,0,0,0-4.913,7.332l-6.732-8.23Zm-22.8,26.974a2.684,2.684,0,0,1-.389-2.8c.856-1.492,3.665-2.225,7.516-1.958a1.4,1.4,0,0,0,1.483-1.183,1.4,1.4,0,0,0-1.051-1.579c-6.4-1.576-6.787-3.286-6.809-3.476-.058-.492.593-1.354,2.177-2.173,3.45-1.78,9.013-2.212,11.547-.21A52.184,52.184,0,0,0-369.96,336.1C-374.551,336.442-377.926,334.7-379.31,332.678Zm27.6,34.2a65.92,65.92,0,0,1-8.414-7.293,27.238,27.238,0,0,1-6.849-15.664c-.874-8.206,1.4-17.249,6.756-26.879,9.733-17.494,22.235-27.249,37.161-28.994,3.461-.4,7.717,1.4,11.378,4.839,4.4,4.129,6.873,9.541,6.612,14.478-.067,1.27-.139,2.484-.208,3.639-.5,8.387-.8,13.45,2.347,15.143,2.915,1.569,7.469-.516,17.4-7.964a10.157,10.157,0,0,1,1.584-1.017c-.068,1.088-.686,4.025-4.1,11.411-2.425,5.256-5.047,10.114-5.073,10.163a1.526,1.526,0,0,0,.493,1.993,1.525,1.525,0,0,0,2.031-.3c.03-.037,3.049-3.722,5.037-6.243,3.151-3.993,4.788-4.191,4.928-4.081.816.641.6,6.013-4.278,12.273-1.4,1.8-2.365,3.123-2.954,4.056-.487.772-1.392,2.207-.339,3.259,1.082,1.079,2.486.114,3.241-.407.7-.477,1.511-1.116,2.3-1.733.274-.215.562-.442.833-.648a17.946,17.946,0,0,1-1.714,4.684c-1.889,3.779-12.535,12.067-21.915,16.163" transform="translate(382.767 -270.502)" fill="#1b1311"/>
        </g>
        <g id="グループ_1786" data-name="グループ 1786" transform="translate(46.555 51.067)" opacity="0.96">
          <path id="パス_914" data-name="パス 914" d="M-295.7,349.3c-1.539-.879-3.633-.967-6.142-.293,6.26-7.318,6.8-10.106,5.47-11.754-1.22-1.513-3.848-2.161-14.722,3.3-5.625,2.824-11.009,6.075-11.063,6.107a1.526,1.526,0,0,0-.516,2.1,1.526,1.526,0,0,0,2.1.515c.048-.029,4.866-2.937,10.094-5.607,8.12-4.144,10.851-4.461,11.62-4.412-.168.9-1.5,3.98-10.18,13.16a1.528,1.528,0,0,0-.077,2.011,1.529,1.529,0,0,0,1.984.341c5.281-3.239,8.646-3.538,9.921-2.81a1.344,1.344,0,0,1,.669,1.353c-.04,2.367-2.984,6.442-9.352,9.8a1.529,1.529,0,0,0-.746,1.808A1.527,1.527,0,0,0-305,365.962a6.06,6.06,0,0,1,2.825.089c-.33,1.13-3.958,4.561-10.521,6.281a1.528,1.528,0,0,0-1.089,1.865,1.527,1.527,0,0,0,1.476,1.139,1.509,1.509,0,0,0,.387-.049c6.747-1.768,13.49-6.178,12.773-9.921a2.724,2.724,0,0,0-1.448-1.953c4.364-3.13,7.05-6.844,7.1-10.061A4.42,4.42,0,0,0-295.7,349.3Z" transform="translate(322.889 -336.184)" fill="#1b1311"/>
        </g>
        <g id="グループ_1787" data-name="グループ 1787" transform="translate(34.618 39.401)" opacity="0.96">
          <path id="パス_915" data-name="パス 915" d="M-319.815,334.517a11.8,11.8,0,0,0-2.789-10.484,8.947,8.947,0,0,0-8.243-2.7,8.524,8.524,0,0,0-6.177,4.439,11.461,11.461,0,0,0-.228,9.813,10.087,10.087,0,0,0,8.863,6.239h.017A8.961,8.961,0,0,0-319.815,334.517Zm-8.567,4.5a7.351,7.351,0,0,1-6.3-4.561,8.719,8.719,0,0,1,.131-7.358,5.7,5.7,0,0,1,4.186-3,7.08,7.08,0,0,1,1.225-.109,6.12,6.12,0,0,1,4.506,1.984,8.923,8.923,0,0,1,2.081,7.934A6.167,6.167,0,0,1-328.382,339.015Z" transform="translate(338.242 -321.179)" fill="#1b1311"/>
        </g>
      </g>
    </g>
    <g id="グループ_1790" data-name="グループ 1790" transform="translate(389.799 1406.288)" opacity="0.06">
      <path id="パス_916" data-name="パス 916" d="M.054,381.538H6.313L0,389.475v1.374H12.123v-3.6H6.138l6.121-7.7v-1.616H.054Z" transform="translate(0 -330.25)" fill="#221714"/>
      <path id="パス_917" data-name="パス 917" d="M149.843,205.419h7.823l-7.891,9.921v1.717h15.153v-4.5h-7.48l7.651-9.619v-2.019H149.843Z" transform="translate(-134.247 -171.582)" fill="#221714"/>
      <path id="パス_918" data-name="パス 918" d="M353.007,9.486H334.7v5.406h9.387L334.617,26.8v2.06H352.8V23.452h-8.975l9.181-11.543Z" transform="translate(-299.926)" fill="#221714"/>
    </g>
  </g>
</svg>
