<svg xmlns="http://www.w3.org/2000/svg" width="188.284" height="177.665" viewBox="0 0 188.284 177.665">
  <g id="グループ_1643" data-name="グループ 1643" transform="translate(202.148 174.466) rotate(164)">
    <g id="グループ_1640" data-name="グループ 1640" transform="translate(158.624 159.936) rotate(98)">
      <path id="パス_859" data-name="パス 859" d="M18.093,5.22c-.211.748-3.288.844-4,.695s-2.716-.1-3.145.348.143,1.191.572,1.637,1.358,1.861,1.644,2.159a21.854,21.854,0,0,1,2.311,2.754c1.1,1.836,1.466,3.635.894,4.231s-2.3.211-4.062-.931a21.56,21.56,0,0,1-2.645-2.406c-.286-.3-1.644-1.266-2.073-1.712s-1.143-1.042-1.572-.6-.477,2.531-.334,3.275.05,3.948-.667,4.168S2.964,17.2,2.44,15.642C2.133,14.726-.491,10.431.081,7.3s1.1-4.714,1.751-5.4S4.013.68,7.014.085s7.125,2.136,8.005,2.456C16.52,3.087,18.3,4.473,18.093,5.22Z" transform="translate(24.514 36.91) rotate(101)" fill="#221714" opacity="0.065"/>
      <path id="パス_861" data-name="パス 861" d="M18.093,5.22c-.211.748-3.288.844-4,.695s-2.716-.1-3.145.348.143,1.191.572,1.637,1.358,1.861,1.644,2.159a21.854,21.854,0,0,1,2.311,2.754c1.1,1.836,1.466,3.635.894,4.231s-2.3.211-4.062-.931a21.56,21.56,0,0,1-2.645-2.406c-.286-.3-1.644-1.266-2.073-1.712s-1.143-1.042-1.572-.6-.477,2.531-.334,3.275.05,3.948-.667,4.168S2.964,17.2,2.44,15.642C2.133,14.726-.491,10.431.081,7.3s1.1-4.714,1.751-5.4S4.013.68,7.014.085s7.125,2.136,8.005,2.456C16.52,3.087,18.3,4.473,18.093,5.22Z" transform="translate(58.638 3.599) rotate(101)" fill="#221714" opacity="0.065"/>
      <path id="パス_858" data-name="パス 858" d="M18.093,5.22c-.211.748-3.288.844-4,.695s-2.716-.1-3.145.348.143,1.191.572,1.637,1.358,1.861,1.644,2.159a21.854,21.854,0,0,1,2.311,2.754c1.1,1.836,1.466,3.635.894,4.231s-2.3.211-4.062-.931a21.56,21.56,0,0,1-2.645-2.406c-.286-.3-1.644-1.266-2.073-1.712s-1.143-1.042-1.572-.6-.477,2.531-.334,3.275.05,3.948-.667,4.168S2.964,17.2,2.44,15.642C2.133,14.726-.491,10.431.081,7.3s1.1-4.714,1.751-5.4S4.013.68,7.014.085s7.125,2.136,8.005,2.456C16.52,3.087,18.3,4.473,18.093,5.22Z" transform="translate(21.969 72.017) rotate(101)" fill="#221714" opacity="0.065"/>
      <path id="パス_860" data-name="パス 860" d="M18.093,5.22c-.211.748-3.288.844-4,.695s-2.716-.1-3.145.348.143,1.191.572,1.637,1.358,1.861,1.644,2.159a21.854,21.854,0,0,1,2.311,2.754c1.1,1.836,1.466,3.635.894,4.231s-2.3.211-4.062-.931a21.56,21.56,0,0,1-2.645-2.406c-.286-.3-1.644-1.266-2.073-1.712s-1.143-1.042-1.572-.6-.477,2.531-.334,3.275.05,3.948-.667,4.168S2.964,17.2,2.44,15.642C2.133,14.726-.491,10.431.081,7.3s1.1-4.714,1.751-5.4S4.013.68,7.014.085s7.125,2.136,8.005,2.456C16.52,3.087,18.3,4.473,18.093,5.22Z" transform="translate(59.371 40.632) rotate(101)" fill="#221714" opacity="0.065"/>
    </g>
    <g id="グループ_1642" data-name="グループ 1642" transform="translate(109.624 81.936) rotate(98)">
      <path id="パス_859-2" data-name="パス 859" d="M18.093,5.22c-.211.748-3.288.844-4,.695s-2.716-.1-3.145.348.143,1.191.572,1.637,1.358,1.861,1.644,2.159a21.854,21.854,0,0,1,2.311,2.754c1.1,1.836,1.466,3.635.894,4.231s-2.3.211-4.062-.931a21.56,21.56,0,0,1-2.645-2.406c-.286-.3-1.644-1.266-2.073-1.712s-1.143-1.042-1.572-.6-.477,2.531-.334,3.275.05,3.948-.667,4.168S2.964,17.2,2.44,15.642C2.133,14.726-.491,10.431.081,7.3s1.1-4.714,1.751-5.4S4.013.68,7.014.085s7.125,2.136,8.005,2.456C16.52,3.087,18.3,4.473,18.093,5.22Z" transform="translate(24.514 36.91) rotate(101)" fill="#221714" opacity="0.065"/>
      <path id="パス_861-2" data-name="パス 861" d="M18.093,5.22c-.211.748-3.288.844-4,.695s-2.716-.1-3.145.348.143,1.191.572,1.637,1.358,1.861,1.644,2.159a21.854,21.854,0,0,1,2.311,2.754c1.1,1.836,1.466,3.635.894,4.231s-2.3.211-4.062-.931a21.56,21.56,0,0,1-2.645-2.406c-.286-.3-1.644-1.266-2.073-1.712s-1.143-1.042-1.572-.6-.477,2.531-.334,3.275.05,3.948-.667,4.168S2.964,17.2,2.44,15.642C2.133,14.726-.491,10.431.081,7.3s1.1-4.714,1.751-5.4S4.013.68,7.014.085s7.125,2.136,8.005,2.456C16.52,3.087,18.3,4.473,18.093,5.22Z" transform="translate(58.638 3.599) rotate(101)" fill="#221714" opacity="0.065"/>
      <path id="パス_858-2" data-name="パス 858" d="M18.093,5.22c-.211.748-3.288.844-4,.695s-2.716-.1-3.145.348.143,1.191.572,1.637,1.358,1.861,1.644,2.159a21.854,21.854,0,0,1,2.311,2.754c1.1,1.836,1.466,3.635.894,4.231s-2.3.211-4.062-.931a21.56,21.56,0,0,1-2.645-2.406c-.286-.3-1.644-1.266-2.073-1.712s-1.143-1.042-1.572-.6-.477,2.531-.334,3.275.05,3.948-.667,4.168S2.964,17.2,2.44,15.642C2.133,14.726-.491,10.431.081,7.3s1.1-4.714,1.751-5.4S4.013.68,7.014.085s7.125,2.136,8.005,2.456C16.52,3.087,18.3,4.473,18.093,5.22Z" transform="translate(21.969 72.017) rotate(101)" fill="#221714" opacity="0.065"/>
      <path id="パス_860-2" data-name="パス 860" d="M18.093,5.22c-.211.748-3.288.844-4,.695s-2.716-.1-3.145.348.143,1.191.572,1.637,1.358,1.861,1.644,2.159a21.854,21.854,0,0,1,2.311,2.754c1.1,1.836,1.466,3.635.894,4.231s-2.3.211-4.062-.931a21.56,21.56,0,0,1-2.645-2.406c-.286-.3-1.644-1.266-2.073-1.712s-1.143-1.042-1.572-.6-.477,2.531-.334,3.275.05,3.948-.667,4.168S2.964,17.2,2.44,15.642C2.133,14.726-.491,10.431.081,7.3s1.1-4.714,1.751-5.4S4.013.68,7.014.085s7.125,2.136,8.005,2.456C16.52,3.087,18.3,4.473,18.093,5.22Z" transform="translate(59.371 40.632) rotate(101)" fill="#221714" opacity="0.065"/>
    </g>
    <g id="グループ_1644" data-name="グループ 1644" transform="translate(65.749 8.129) rotate(98)">
      <path id="パス_859-3" data-name="パス 859" d="M18.093,5.22c-.211.748-3.288.844-4,.695s-2.716-.1-3.145.348.143,1.191.572,1.637,1.358,1.861,1.644,2.159a21.854,21.854,0,0,1,2.311,2.754c1.1,1.836,1.466,3.635.894,4.231s-2.3.211-4.062-.931a21.56,21.56,0,0,1-2.645-2.406c-.286-.3-1.644-1.266-2.073-1.712s-1.143-1.042-1.572-.6-.477,2.531-.334,3.275.05,3.948-.667,4.168S2.964,17.2,2.44,15.642C2.133,14.726-.491,10.431.081,7.3s1.1-4.714,1.751-5.4S4.013.68,7.014.085s7.125,2.136,8.005,2.456C16.52,3.087,18.3,4.473,18.093,5.22Z" transform="translate(21.969 36.91) rotate(101)" fill="#221714" opacity="0.065"/>
      <path id="パス_861-3" data-name="パス 861" d="M18.093,5.22c-.211.748-3.288.844-4,.695s-2.716-.1-3.145.348.143,1.191.572,1.637,1.358,1.861,1.644,2.159a21.854,21.854,0,0,1,2.311,2.754c1.1,1.836,1.466,3.635.894,4.231s-2.3.211-4.062-.931a21.56,21.56,0,0,1-2.645-2.406c-.286-.3-1.644-1.266-2.073-1.712s-1.143-1.042-1.572-.6-.477,2.531-.334,3.275.05,3.948-.667,4.168S2.964,17.2,2.44,15.642C2.133,14.726-.491,10.431.081,7.3s1.1-4.714,1.751-5.4S4.013.68,7.014.085s7.125,2.136,8.005,2.456C16.52,3.087,18.3,4.473,18.093,5.22Z" transform="translate(56.093 3.599) rotate(101)" fill="#221714" opacity="0.065"/>
      <path id="パス_860-3" data-name="パス 860" d="M18.093,5.22c-.211.748-3.288.844-4,.695s-2.716-.1-3.145.348.143,1.191.572,1.637,1.358,1.861,1.644,2.159a21.854,21.854,0,0,1,2.311,2.754c1.1,1.836,1.466,3.635.894,4.231s-2.3.211-4.062-.931a21.56,21.56,0,0,1-2.645-2.406c-.286-.3-1.644-1.266-2.073-1.712s-1.143-1.042-1.572-.6-.477,2.531-.334,3.275.05,3.948-.667,4.168S2.964,17.2,2.44,15.642C2.133,14.726-.491,10.431.081,7.3s1.1-4.714,1.751-5.4S4.013.68,7.014.085s7.125,2.136,8.005,2.456C16.52,3.087,18.3,4.473,18.093,5.22Z" transform="translate(56.826 40.632) rotate(101)" fill="#221714" opacity="0.065"/>
    </g>
  </g>
</svg>
