<svg xmlns="http://www.w3.org/2000/svg" width="64.234" height="59.91" viewBox="0 0 64.234 59.91">
  <g id="グループ_1630" data-name="グループ 1630" opacity="0.9">
    <path id="パス_867" data-name="パス 867" d="M221.785,17.468a1.44,1.44,0,0,0-1.357-.12l-31.8,13.659,0,24.374,31.8,13.661a1.438,1.438,0,0,0,2-1.321V18.669A1.427,1.427,0,0,0,221.785,17.468Z" transform="translate(-164.961 -17.232)" fill="#221714"/>
    <path id="パス_868" data-name="パス 868" d="M20.959,127.034H5.751A5.749,5.749,0,0,0,0,132.783l0,12.873a5.751,5.751,0,0,0,5.751,5.751H20.959Z" transform="translate(0 -113.259)" fill="#221714"/>
    <path id="パス_869" data-name="パス 869" d="M475.625,186.44v10.821c1.96,0,4.563-2.423,4.563-5.408S477.585,186.44,475.625,186.44Z" transform="translate(-415.955 -165.212)" fill="#221714"/>
    <path id="パス_870" data-name="パス 870" d="M76.311,342.753H66.031l4.218,17.023a2.53,2.53,0,0,0,2.486,2.048h5.844a2.536,2.536,0,0,0,2.429-3.254Z" transform="translate(-57.747 -301.914)" fill="#221714"/>
  </g>
</svg>
