<svg id="グループ_1711" data-name="グループ 1711" xmlns="http://www.w3.org/2000/svg" width="52.424" height="65.006" viewBox="0 0 52.424 65.006">
  <path id="パス_884" data-name="パス 884" d="M49.548,0V65.006h52.424V0Zm48.23,60.812H78.905V48.23H72.615V60.812H53.742V4.194H97.778Z" transform="translate(-49.548)" fill="#210f03"/>
  <rect id="長方形_1239" data-name="長方形 1239" width="6.291" height="6.291" transform="translate(10.485 10.485)" fill="#210f03"/>
  <rect id="長方形_1240" data-name="長方形 1240" width="6.291" height="6.291" transform="translate(23.067 10.485)" fill="#210f03"/>
  <rect id="長方形_1241" data-name="長方形 1241" width="6.291" height="6.291" transform="translate(35.648 10.485)" fill="#210f03"/>
  <rect id="長方形_1242" data-name="長方形 1242" width="6.291" height="6.291" transform="translate(10.485 23.067)" fill="#210f03"/>
  <rect id="長方形_1243" data-name="長方形 1243" width="6.291" height="6.291" transform="translate(23.067 23.067)" fill="#210f03"/>
  <rect id="長方形_1244" data-name="長方形 1244" width="6.291" height="6.291" transform="translate(35.648 23.067)" fill="#210f03"/>
  <rect id="長方形_1245" data-name="長方形 1245" width="6.291" height="6.291" transform="translate(10.485 35.648)" fill="#210f03"/>
  <rect id="長方形_1246" data-name="長方形 1246" width="6.291" height="6.291" transform="translate(23.067 35.648)" fill="#210f03"/>
  <rect id="長方形_1247" data-name="長方形 1247" width="6.291" height="6.291" transform="translate(35.648 35.648)" fill="#210f03"/>
  <rect id="長方形_1248" data-name="長方形 1248" width="6.291" height="6.291" transform="translate(10.485 48.23)" fill="#210f03"/>
  <rect id="長方形_1249" data-name="長方形 1249" width="6.291" height="6.291" transform="translate(35.648 48.23)" fill="#210f03"/>
</svg>
