<svg xmlns="http://www.w3.org/2000/svg" width="54.805" height="61.578" viewBox="0 0 54.805 61.578">
  <g id="グループ_1629" data-name="グループ 1629" opacity="0.9">
    <path id="パス_865" data-name="パス 865" d="M28.159,5.454v50.67a5.458,5.458,0,0,0,5.459,5.454h2V0h-2A5.457,5.457,0,0,0,28.159,5.454Z" transform="translate(-28.159)" fill="#221714"/>
    <path id="パス_866" data-name="パス 866" d="M153.169,0h-39V61.578h39a5.457,5.457,0,0,0,5.459-5.454V5.454A5.457,5.457,0,0,0,153.169,0ZM135.432,23.916c.015,4.088-.961,5.149-2.574,6.423-1.3,1.026-2.411,1.614-2.411,4.16V50.887h-3.905V34.5c0-2.547-1.11-3.134-2.409-4.16-1.613-1.273-2.591-2.335-2.576-6.423V16.556a1.623,1.623,0,1,1,3.242-.025v7.709a.892.892,0,0,0,.892.892h.237a.892.892,0,0,0,.892-.892V16.5a1.674,1.674,0,0,1,3.347,0v7.744a.893.893,0,0,0,.892.892h.239a.891.891,0,0,0,.89-.892V16.531a1.622,1.622,0,1,1,3.242.025C135.432,19.217,135.432,23.916,135.432,23.916ZM147.4,34.544V50.981l-.019-.049H143.49V41.144c-.08-4.893-3.676-3.568-3.441-11.038A49.646,49.646,0,0,1,142.433,17.3c1.292-3.62,4.964-2.837,4.964,0C147.4,18.679,147.4,26.686,147.4,34.544Z" transform="translate(-103.823)" fill="#221714"/>
  </g>
</svg>
