<svg xmlns="http://www.w3.org/2000/svg" width="47.035" height="71.205" viewBox="0 0 47.035 71.205">
  <g id="グループ_1632" data-name="グループ 1632" opacity="0.9">
    <rect id="長方形_1233" data-name="長方形 1233" width="19.598" height="6.533" transform="translate(13.718)" fill="#221714"/>
    <rect id="長方形_1234" data-name="長方形 1234" width="19.598" height="6.533" transform="translate(13.718 64.673)" fill="#221714"/>
    <path id="パス_872" data-name="パス 872" d="M86.9,265.945v9.148c0,.463.031.919.069,1.373h46.9c.038-.454.069-.91.069-1.373V265.95H86.922C86.914,265.95,86.907,265.945,86.9,265.945Z" transform="translate(-86.899 -228.959)" fill="#221714"/>
    <path id="パス_873" data-name="パス 873" d="M133.865,170.4h-46.9c-.038.454-.069.91-.069,1.373v9.148c.008,0,.015-.005.023-.005h47.012v-9.143C133.934,171.314,133.9,170.858,133.865,170.4Z" transform="translate(-86.899 -146.705)" fill="#221714"/>
    <path id="パス_874" data-name="パス 874" d="M121.507,65.762H106.324A15.918,15.918,0,0,0,90.963,77.539h45.9A15.918,15.918,0,0,0,121.507,65.762Z" transform="translate(-90.398 -56.616)" fill="#221714"/>
    <path id="パス_875" data-name="パス 875" d="M106.324,373.336h15.183a15.918,15.918,0,0,0,15.36-11.777h-45.9A15.918,15.918,0,0,0,106.324,373.336Z" transform="translate(-90.398 -311.276)" fill="#221714"/>
  </g>
</svg>
