<svg xmlns="http://www.w3.org/2000/svg" width="69.164" height="67.48" viewBox="0 0 69.164 67.48">
  <g id="グループ_1628" data-name="グループ 1628" opacity="0.9">
    <path id="パス_862" data-name="パス 862" d="M66.625,0a2.86,2.86,0,0,0-2.77,2.145l-2.831,10.97H11.155a2.86,2.86,0,0,0-2.747,3.652l8.213,28.5a2.86,2.86,0,0,0,2.748,2.068H52.194l-1.237,4.792H19.619v5.045H52.65a2.861,2.861,0,0,0,2.769-2.146l12.9-49.979H77.46V0ZM55.991,32.62,53.5,42.288H47.2V32.62Zm3.731-14.461-2.43,9.417H47.2V18.159ZM42.151,32.62v9.668H31.389V32.62Zm0-14.461v9.417H31.389V18.159Zm-15,0v9.417H16.772l-2.713-9.417Zm0,14.461v9.668H21.012L18.226,32.62Z" transform="translate(-8.296)" fill="#221714"/>
    <path id="パス_863" data-name="パス 863" d="M92.384,436.688A5.115,5.115,0,1,0,97.5,441.8,5.115,5.115,0,0,0,92.384,436.688Z" transform="translate(-77.245 -379.722)" fill="#221714"/>
    <path id="パス_864" data-name="パス 864" d="M268.162,438.728a5.115,5.115,0,1,0,5.114,5.114A5.114,5.114,0,0,0,268.162,438.728Z" transform="translate(-228.482 -381.477)" fill="#221714"/>
  </g>
</svg>
