<svg xmlns="http://www.w3.org/2000/svg" width="1379.862" height="96.183" viewBox="0 0 1379.862 96.183">
  <path id="パス_930" data-name="パス 930" d="M-97.307,351.183c47.338.619,59.895,3,108.955,2.033,23.4.193,48.373-.356,71.248-.643,10.856-1.856,30.037-.026,42.885-1.583l4.98,1.052a60.24,60.24,0,0,1,14.074-.323l-.28.305c6.614-.8,14.072-.321,17.358-.72l-.276.307,8.034-.136-1.38.439a315.1,315.1,0,0,1,33.892-.516l-.868-1.274c22.393,1.425,30.583-1.219,50.8.472l-.276.31c25.546-3.364,40.387,2.29,66.721-.9-3.286.4,1.406.657,1.14.966,12.127-.365,25.08-.556,25.27-3.059,8.839.035,7.2.784,8.348,1.75-.051-1.1,7.627-1.553,14.523-1.621l-3.174.424,19.773-.373-3.882-2.071c10.483.6,2.662,2.525,12.7,2.025l-.129-1.715c14.5.338,23.006,2.936,37.045,4.2,58.348.733,121.037-3.643,175.328-.624L607.9,351.2c1.043,1.884,14.974-2.787,17.046-1.045l6.314-.861c1.775.336,5.515.7,2.371,1.12,5.838.075,5.981-.235,10.186-.8l6.266,1.17c23.04.909,42.628-1.351,66.869-.894,29.122,2.391,83.938.2,115.52-1.083,44.394-2.815,96.029,4.682,141.483,1.465,1.479.266,5.309-.334,5.277-.549l41.6.266s201.7.723,48.463-14.882l1.029-.408c-22.768-1-37.1-1.217-52.8.85-2.481-2.53-18.7-.261-24.033-1.08l.506-.206c-13.891,1.948-28.608-1.619-42,.125.521-.2.809-.9,3.886-.938-9.754.321-23.095.883-23.82-.588-23.3.384-55.817-.3-70.744,2.053l1.024-.406c-8.506,1.586-11.012.235-20.521,1.041-.518-.193-1.193-.292-1.085-.373-9.267,1.568-27.044.246-34.537.914l-.485-.977-18.454.228,6.9.209c-2.39,2.69-13.956-1.687-27.339.057-12.523-.34-25.4,5.589-38.408,4.271-6.2,1.258,5.461-2.047-3.808-1.076-.3-1.4,4.329-.881,1.941-2-9.1.663-14.93-1.434-26.161-.485l-.457-1.094c-14.65,2-27.641-1.438-37.392.468-15.107.9-10.129-3.243-25.862-1.107l-6.116-1.478c-6.732-.239-4.822,1.812-12.283,1.1.453-.931-9.433-.742-5.062-1.625-16.894-1.456-34.294,2.066-56.542-.4-4.835,1.81-16.034.733-19.64,2.093-.6-.788-22.443-.127-9.868-1.84,1.081-.141,2.991-.114,2.86.193l1.5-1.072c-12.687-2.029-23.057,1.116-35.614.8,3.722.356,8.675.261,5.364,1l-11.665-.145,2.428-.9-17.379-.529,2.394,1.12c-8.506-.575-11.5-2.479-21.086-.889-4.342.885,8.055,1.509-.923,1.86-11.368-.764-28.4-1.915-42.914-2.249,1.357,1.263-2.548,1.214-6.567,1.471l-.464-1.094c-15.4,1.52-5.648-2.4-20.934-1.2l1.349-.762-4.038,2.284c-13.792,2.167-7.438-2.268-22.764.692,6.059-.187,2.856,2.411-4.6,1.935l1.888-1.056c-4.129.224-5.5.665-8.253.446,2.457-.569,1.3-1.535-4.769-1.355l4.068-1.32L335.563,333.6c-8.86-1.131-22.9.288-26.536-1.2,0,0-19.046-.729-23.417.9,3.829-1.012-6.673-1.4-3.684-2.587-4.934,1.146-19.512,2.084-25.348.863l1.106-.138c-21.586-1.247-36.912,1.709-56.278.193.883,1.269-9.347.578-6.818,2.2-20.039,1.6-36.537-3.3-43.774,1.715-9.115.27-10.8-1.175-15.514-1.432l2.173-.266c-17.08.411-22.039.459-34.726.343-6.331.49-7.328,2.818-18.675,2.255,3.669-.924-.967-.753-5.212-.753,2.712-.147,3.551-.485-2.021-1.107a16.555,16.555,0,0,1-3.132.608c-.048-.072-.27-.13-.156-.228-7.086.327-5.853.615-2.563.742-.164.143.112.323,1.13.58-7.353-1.195-20.5.081-21.388-1.509-21.305.369-36.532,2.012-54.259,2.629-1.994-.819,2.15-1.544,7.3-1.862l-12.578.3c.107-1.179,7.227-.679,11.1-.913-14.976-1.9-30.874,1.9-48.432.154l-3.64.931-1.047-.154c.053.492-3.886,1.162-6.489,1.32-2.483-1.026.175-2.363-8.519-2.3-6.873-.988-19.531.5-28.532,1.047,4.852.173,3.286.744,1.2,1.1-4.348.033-6.85-.99-10.207-.549l-.417-1.386c1.711,1.3-11.353,1.408-12.962,1.972-2.474-1.023,6.744-.881,7.83-1.654l-26.14.191c-9.3,1.043,1.688,1.309-2.759,2.523-8.211.27-16.222,1.234-25.647.4l2.984,1.228c-15.427.953-24.654.81-35.047-.433-114.913,10-24.212,13.668-24.212,13.668C-174.509,355.718-151.155,352.141-97.307,351.183Z" transform="matrix(0.999, 0.052, -0.052, 0.999, 271.92, -316.304)" fill="#6e3f0f"/>
</svg>
