<svg xmlns="http://www.w3.org/2000/svg" width="93.483" height="90.157" viewBox="0 0 93.483 90.157">
  <g id="グループ_1620" data-name="グループ 1620" transform="translate(-1084.231 -2708.479) rotate(1)">
    <path id="パス_857" data-name="パス 857" d="M18.093,13.64c-.211-.748-3.288-.844-4-.695s-2.716.1-3.145-.348.143-1.191.572-1.637S12.875,9.1,13.161,8.8a21.854,21.854,0,0,0,2.311-2.754c1.1-1.836,1.466-3.635.894-4.231s-2.3-.211-4.062.931A21.56,21.56,0,0,0,9.659,5.153c-.286.3-1.644,1.266-2.073,1.712s-1.143,1.042-1.572.6S5.537,4.931,5.68,4.186,5.73.238,5.013.018,2.964,1.655,2.44,3.218c-.307.916-2.931,5.21-2.359,8.337s1.1,4.714,1.751,5.4,2.18,1.228,5.182,1.824,7.125-2.136,8.005-2.456C16.52,15.773,18.3,14.387,18.093,13.64Z" transform="translate(1134.902 2713.307) rotate(-101)" fill="#221714" opacity="0.065"/>
    <path id="パス_859" data-name="パス 859" d="M18.093,13.64c-.211-.748-3.288-.844-4-.695s-2.716.1-3.145-.348.143-1.191.572-1.637S12.875,9.1,13.161,8.8a21.854,21.854,0,0,0,2.311-2.754c1.1-1.836,1.466-3.635.894-4.231s-2.3-.211-4.062.931A21.56,21.56,0,0,0,9.659,5.153c-.286.3-1.644,1.266-2.073,1.712s-1.143,1.042-1.572.6S5.537,4.931,5.68,4.186,5.73.238,5.013.018,2.964,1.655,2.44,3.218c-.307.916-2.931,5.21-2.359,8.337s1.1,4.714,1.751,5.4,2.18,1.228,5.182,1.824,7.125-2.136,8.005-2.456C16.52,15.773,18.3,14.387,18.093,13.64Z" transform="translate(1172.304 2744.692) rotate(-101)" fill="#221714" opacity="0.065"/>
    <path id="パス_861" data-name="パス 861" d="M18.093,13.64c-.211-.748-3.288-.844-4-.695s-2.716.1-3.145-.348.143-1.191.572-1.637S12.875,9.1,13.161,8.8a21.854,21.854,0,0,0,2.311-2.754c1.1-1.836,1.466-3.635.894-4.231s-2.3-.211-4.062.931A21.56,21.56,0,0,0,9.659,5.153c-.286.3-1.644,1.266-2.073,1.712s-1.143,1.042-1.572.6S5.537,4.931,5.68,4.186,5.73.238,5.013.018,2.964,1.655,2.44,3.218c-.307.916-2.931,5.21-2.359,8.337s1.1,4.714,1.751,5.4,2.18,1.228,5.182,1.824,7.125-2.136,8.005-2.456C16.52,15.773,18.3,14.387,18.093,13.64Z" transform="translate(1206.427 2778.004) rotate(-101)" fill="#221714" opacity="0.065"/>
    <path id="パス_858" data-name="パス 858" d="M18.093,13.64c-.211-.748-3.288-.844-4-.695s-2.716.1-3.145-.348.143-1.191.572-1.637S12.875,9.1,13.161,8.8a21.854,21.854,0,0,0,2.311-2.754c1.1-1.836,1.466-3.635.894-4.231s-2.3-.211-4.062.931A21.56,21.56,0,0,0,9.659,5.153c-.286.3-1.644,1.266-2.073,1.712s-1.143,1.042-1.572.6S5.537,4.931,5.68,4.186,5.73.238,5.013.018,2.964,1.655,2.44,3.218c-.307.916-2.931,5.21-2.359,8.337s1.1,4.714,1.751,5.4,2.18,1.228,5.182,1.824,7.125-2.136,8.005-2.456C16.52,15.773,18.3,14.387,18.093,13.64Z" transform="translate(1169.758 2709.586) rotate(-101)" fill="#221714" opacity="0.065"/>
    <path id="パス_860" data-name="パス 860" d="M18.093,13.64c-.211-.748-3.288-.844-4-.695s-2.716.1-3.145-.348.143-1.191.572-1.637S12.875,9.1,13.161,8.8a21.854,21.854,0,0,0,2.311-2.754c1.1-1.836,1.466-3.635.894-4.231s-2.3-.211-4.062.931A21.56,21.56,0,0,0,9.659,5.153c-.286.3-1.644,1.266-2.073,1.712s-1.143,1.042-1.572.6S5.537,4.931,5.68,4.186,5.73.238,5.013.018,2.964,1.655,2.44,3.218c-.307.916-2.931,5.21-2.359,8.337s1.1,4.714,1.751,5.4,2.18,1.228,5.182,1.824,7.125-2.136,8.005-2.456C16.52,15.773,18.3,14.387,18.093,13.64Z" transform="translate(1207.161 2740.971) rotate(-101)" fill="#221714" opacity="0.065"/>
  </g>
</svg>
