<svg xmlns="http://www.w3.org/2000/svg" width="101.929" height="117.993" viewBox="0 0 101.929 117.993">
  <g id="グループ_1618" data-name="グループ 1618" transform="matrix(0.999, 0.035, -0.035, 0.999, 4.001, 0)">
    <g id="グループ_1553" data-name="グループ 1553">
      <g id="グループ_1547" data-name="グループ 1547">
        <g id="グループ_1546" data-name="グループ 1546" opacity="0.96">
          <path id="パス_798" data-name="パス 798" d="M230.492,164.206c4.2-5.856,5.5-12.307,2.79-14.434-.928-.727-2.76-1.307-5.7,1.215,4.794-10.566,3.98-12.5,2.839-13.482-1.672-1.443-4.19.446-5.14,1.158a68.225,68.225,0,0,1-9.474,6.27c-2.484,1.234-3.368,1.037-3.633.894-1.33-.716-1.02-5.9-.693-11.393.064-1.077.132-2.212.2-3.4a16.847,16.847,0,0,0-.665-5.514c8.089-11.818,5.856-17.022,3.8-19.07-2.246-2.242-5.832-2.482-8.892-1.519,1.411-4.653,1.383-6.725.064-7.764-1.846-1.455-4.757.4-10.042,3.765-1.058.676-2.216,1.413-3.446,2.174-.5-2.327-1.453-4.645-3.527-4.9-2.363-.28-4.849,2.312-8.064,8.414-2.125,4.033-3.72,8.053-3.786,8.221-.006.017-.008.034-.013.049q-1.01.558-2,1.179a45.239,45.239,0,0,0-4.065,2.89.4.4,0,0,0-.04-.045l-7.936-6.8a1.3,1.3,0,0,0-2.15.99v13.613l-13.477-1.039a1.3,1.3,0,0,0-1.107,2.123l8.8,10.76q-.3.532-.576,1.06c-3.425-2.295-9.279-1.749-13.11.23-2.407,1.241-3.618,2.89-3.412,4.636.155,1.319,1.067,2.456,2.758,3.429a5.945,5.945,0,0,0-3.489,2.58,4.929,4.929,0,0,0,.472,5.359c1.47,2.15,4.8,4.36,9.7,4.358.3,0,.61-.011.922-.028a33.679,33.679,0,0,0,.157,4.936,28.13,28.13,0,0,0,7.093,16.163,42.711,42.711,0,0,0,8.8,7.373,1.41,1.41,0,0,0,.376.157,15.652,15.652,0,0,0,.576,1.662l-2.295,2.142-9.693-6.37a.993.993,0,0,0-1.426,1.29l4.479,8.561-7.371,7.279a.992.992,0,0,0,.971,1.659l8.875-2.548,1.889,8.055a.989.989,0,0,0,.965.765h.013a.99.99,0,0,0,.958-.79l2.318-11.185,7.471-4.328a10.921,10.921,0,0,0,3.755-1.834,1.432,1.432,0,0,0,.38.13,39.878,39.878,0,0,0,6.767.548,60.579,60.579,0,0,0,9.094-.761,1.213,1.213,0,0,0,.261-.068,8.867,8.867,0,0,0,6.211,2.956,7.536,7.536,0,0,0,2.775-.55c.463.667.931,1.349,1.377,2.012v12.88a.994.994,0,0,0,.865.984c.042,0,.087.006.128.006a.992.992,0,0,0,.958-.739c1.094-4.156,2.658-8.984,3.434-10.122a38,38,0,0,1,6.315,3.873.991.991,0,0,0,1.5-1.162l-2.785-7.209,7.862-5.454a.993.993,0,0,0-.852-1.766l-13.2,3.988-.2-.285a12.008,12.008,0,0,0,1.942-2.877l.045-.013c10.964-3.882,20.073-12.122,22.18-16.333.994-2,3.111-6.827,1.213-8.605A2.022,2.022,0,0,0,230.492,164.206Z" transform="translate(-136.714 -96.67)" fill="#fff"/>
        </g>
      </g>
      <g id="グループ_1552" data-name="グループ 1552">
        <g id="グループ_1548" data-name="グループ 1548" opacity="0.96">
          <path id="パス_799" data-name="パス 799" d="M230.492,164.206c4.2-5.856,5.5-12.307,2.79-14.434-.928-.727-2.76-1.307-5.7,1.215,4.794-10.566,3.98-12.5,2.839-13.482-1.672-1.443-4.19.446-5.14,1.158a68.225,68.225,0,0,1-9.474,6.27c-2.484,1.234-3.368,1.037-3.633.894-1.33-.716-1.02-5.9-.693-11.393.064-1.077.132-2.212.2-3.4a16.847,16.847,0,0,0-.665-5.514c8.089-11.818,5.856-17.022,3.8-19.07-2.246-2.242-5.832-2.482-8.892-1.519,1.411-4.653,1.383-6.725.064-7.764-1.846-1.455-4.757.4-10.042,3.765-1.058.676-2.216,1.413-3.446,2.174-.5-2.327-1.453-4.645-3.527-4.9-2.363-.28-4.849,2.312-8.064,8.414-2.125,4.033-3.72,8.053-3.786,8.221-.006.017-.008.034-.013.049q-1.01.558-2,1.179a45.239,45.239,0,0,0-4.065,2.89.4.4,0,0,0-.04-.045l-7.936-6.8a1.3,1.3,0,0,0-2.15.99v13.613l-13.477-1.039a1.3,1.3,0,0,0-1.107,2.123l8.8,10.76q-.3.532-.576,1.06c-3.425-2.295-9.279-1.749-13.11.23-2.407,1.241-3.618,2.89-3.412,4.636.155,1.319,1.067,2.456,2.758,3.429a5.945,5.945,0,0,0-3.489,2.58,4.929,4.929,0,0,0,.472,5.359c1.47,2.15,4.8,4.36,9.7,4.358.3,0,.61-.011.922-.028a33.679,33.679,0,0,0,.157,4.936,28.13,28.13,0,0,0,7.093,16.163,42.711,42.711,0,0,0,8.8,7.373,1.41,1.41,0,0,0,.376.157,15.652,15.652,0,0,0,.576,1.662l-2.295,2.142-9.693-6.37a.993.993,0,0,0-1.426,1.29l4.479,8.561-7.371,7.279a.992.992,0,0,0,.971,1.659l8.875-2.548,1.889,8.055a.989.989,0,0,0,.965.765h.013a.99.99,0,0,0,.958-.79l2.318-11.185,7.471-4.328a10.921,10.921,0,0,0,3.755-1.834,1.432,1.432,0,0,0,.38.13,39.878,39.878,0,0,0,6.767.548,60.579,60.579,0,0,0,9.094-.761,1.213,1.213,0,0,0,.261-.068,8.867,8.867,0,0,0,6.211,2.956,7.536,7.536,0,0,0,2.775-.55c.463.667.931,1.349,1.377,2.012v12.88a.994.994,0,0,0,.865.984c.042,0,.087.006.128.006a.992.992,0,0,0,.958-.739c1.094-4.156,2.658-8.984,3.434-10.122a38,38,0,0,1,6.315,3.873.991.991,0,0,0,1.5-1.162l-2.785-7.209,7.862-5.454a.993.993,0,0,0-.852-1.766l-13.2,3.988-.2-.285a12.008,12.008,0,0,0,1.942-2.877l.045-.013c10.964-3.882,20.073-12.122,22.18-16.333.994-2,3.111-6.827,1.213-8.605A2.022,2.022,0,0,0,230.492,164.206Zm-47.28-56.379c3.761-7.131,5.42-7.027,5.442-7.027.253.032,1.086.941,1.589,4.6a1.3,1.3,0,0,0,1.961.939c1.872-1.126,3.606-2.231,5.133-3.2,2.79-1.778,5.934-3.78,7-3.859.108.5.076,2.18-1.829,7.715a1.3,1.3,0,0,0,1.972,1.5c2.424-1.676,6.506-2.165,8.491-.187,2.346,2.339,1.211,7.473-3.094,14.219a23.591,23.591,0,0,0-5.233-7.135c-4-3.755-8.794-5.714-12.829-5.24a39.406,39.406,0,0,0-11.151,3C181.317,111.658,182.211,109.729,183.212,107.827Zm-14.183,12.836a55.791,55.791,0,0,0-5.509,5.643V115.939Zm-7.947,8.686a76.766,76.766,0,0,0-4.56,6.808l-6.249-7.641Zm-21.158,25.04a2.486,2.486,0,0,1-.361-2.594c.793-1.385,3.4-2.065,6.978-1.817a1.3,1.3,0,0,0,.4-2.565c-5.945-1.462-6.3-3.051-6.321-3.228-.053-.457.55-1.258,2.021-2.016,3.2-1.653,8.367-2.053,10.719-.2a48.478,48.478,0,0,0-4.755,15.59C144.341,157.882,141.207,156.269,139.924,154.389Zm23.78,43.456a.988.988,0,0,0-.474.657l-1.5,7.222-1.1-4.7a.99.99,0,0,0-1.239-.729l-6.141,1.761L158.38,197a.987.987,0,0,0,.181-1.164l-3.045-5.824,7.15,4.7a.99.99,0,0,0,1.222-.1l2.452-2.29a6.26,6.26,0,0,0,2.707,2.437Zm65.124-25.9c-1.753,3.508-9.1,10.029-17.812,13.832.036-.072.072-.145.11-.219a1.3,1.3,0,1,0-2.307-1.207c-.461.882-.856,1.7-1.2,2.42a18.888,18.888,0,0,1-1.953,3.47l-1.819-2.6a.992.992,0,1,0-1.625,1.137l3.967,5.669a1,1,0,0,0,1.1.38l7.874-2.38-3.342,2.318a.993.993,0,0,0-.359,1.173l1.906,4.936c-2.144-1.4-4.243-2.558-5.2-2.452-.474.053-1.337.149-3.007,5.025v-6.306a1,1,0,0,0-.168-.55c-5.271-7.911-6.011-7.9-6.57-7.9a1.071,1.071,0,0,0-.9.491.992.992,0,0,0,.293,1.373,1.012,1.012,0,0,0,.376.147,24.108,24.108,0,0,1,2.016,2.509c-4.453,1.143-7.375-4.462-7.513-4.732a1.3,1.3,0,0,0-2.324,1.173c.13.261.285.54.459.824a46.72,46.72,0,0,1-11.7.314c.622-.6,1.258-1.26,1.914-1.987a1.3,1.3,0,0,0-1.934-1.744c-3.78,4.186-6.937,6.092-8.894,5.361-2.887-1.075-3.672-7.673-3.716-9.9a1.306,1.306,0,0,0-1.3-1.277h-.025a1.3,1.3,0,0,0-1.277,1.328c.006.293.034,1.213.181,2.431a41.357,41.357,0,0,1-6.34-5.637,25.288,25.288,0,0,1-6.359-14.54c-.81-7.617,1.3-16.014,6.274-24.953,9.032-16.24,20.64-25.3,34.5-26.914,3.211-.376,7.163,1.3,10.56,4.492,4.086,3.833,6.381,8.858,6.138,13.439-.062,1.179-.127,2.305-.191,3.378-.465,7.785-.746,12.485,2.18,14.058,2.7,1.455,6.931-.48,16.15-7.394a9.454,9.454,0,0,1,1.468-.943c-.062,1.011-.635,3.737-3.8,10.594-2.25,4.878-4.685,9.387-4.708,9.434a1.417,1.417,0,0,0,2.344,1.57c.028-.034,2.83-3.455,4.677-5.794,2.924-3.708,4.443-3.89,4.575-3.789.756.595.559,5.582-3.971,11.393-1.3,1.666-2.2,2.9-2.743,3.765-.45.716-1.292,2.048-.314,3.026,1,1,2.307.1,3.009-.378.646-.442,1.4-1.037,2.135-1.608.253-.2.523-.41.773-.6A16.751,16.751,0,0,1,228.829,171.946Z" transform="translate(-136.714 -96.67)" fill="#221714"/>
        </g>
        <g id="グループ_1549" data-name="グループ 1549" transform="translate(43.217 47.407)" opacity="0.96">
          <path id="パス_800" data-name="パス 800" d="M182.3,131.153c-1.428-.816-3.372-.9-5.7-.272,5.811-6.793,6.313-9.381,5.078-10.911-1.132-1.4-3.572-2.006-13.666,3.06-5.223,2.622-10.22,5.641-10.269,5.669a1.417,1.417,0,1,0,1.466,2.426c.045-.028,4.517-2.728,9.37-5.206,7.539-3.848,10.076-4.143,10.787-4.1-.155.837-1.39,3.695-9.451,12.217a1.418,1.418,0,0,0,1.772,2.182c4.9-3.007,8.025-3.285,9.209-2.607a1.242,1.242,0,0,1,.621,1.254c-.036,2.2-2.769,5.981-8.68,9.094a1.417,1.417,0,0,0,.833,2.66,5.638,5.638,0,0,1,2.62.083c-.306,1.05-3.674,4.235-9.765,5.83a1.418,1.418,0,0,0,.359,2.79,1.391,1.391,0,0,0,.359-.047c6.264-1.64,12.523-5.735,11.858-9.209a2.528,2.528,0,0,0-1.345-1.812c4.052-2.907,6.544-6.355,6.6-9.341A4.108,4.108,0,0,0,182.3,131.153Z" transform="translate(-157.054 -118.982)" fill="#221714"/>
        </g>
        <g id="グループ_1550" data-name="グループ 1550" transform="translate(32.136 36.576)" opacity="0.96">
          <path id="パス_801" data-name="パス 801" d="M168.944,126.267a10.946,10.946,0,0,0-2.588-9.734,8.306,8.306,0,0,0-7.651-2.509,7.913,7.913,0,0,0-5.735,4.122,10.645,10.645,0,0,0-.212,9.109,9.371,9.371,0,0,0,8.229,5.792H161A8.317,8.317,0,0,0,168.944,126.267Zm-7.953,4.175a6.827,6.827,0,0,1-5.847-4.235,8.105,8.105,0,0,1,.121-6.831,5.289,5.289,0,0,1,3.886-2.786,6.563,6.563,0,0,1,1.137-.1,5.683,5.683,0,0,1,4.184,1.842A8.292,8.292,0,0,1,166.4,125.7,5.729,5.729,0,0,1,160.991,130.442Z" transform="translate(-151.839 -113.885)" fill="#221714"/>
        </g>
        <g id="グループ_1551" data-name="グループ 1551" transform="translate(36.53 26.027)" opacity="0.96">
          <path id="パス_802" data-name="パス 802" d="M156,115.437c2.754-2.089,7.626-4.713,9.332-3.706.774.455,1.018,1.974.684,4.277a1.3,1.3,0,0,0,1.1,1.475,1.4,1.4,0,0,0,.189.013,1.3,1.3,0,0,0,1.288-1.115c.506-3.517-.147-5.837-1.942-6.893-3.812-2.248-10.853,2.832-12.228,3.873A1.3,1.3,0,0,0,156,115.437Z" transform="translate(-153.907 -108.92)" fill="#221714"/>
        </g>
      </g>
    </g>
    <g id="グループ_1554" data-name="グループ 1554" transform="translate(34.747 39.18)">
      <path id="パス_803" data-name="パス 803" d="M159.609,129.063a6.827,6.827,0,0,1-5.847-4.235,8.106,8.106,0,0,1,.121-6.831,5.289,5.289,0,0,1,3.886-2.786,6.563,6.563,0,0,1,1.137-.1,5.683,5.683,0,0,1,4.184,1.842,8.292,8.292,0,0,1,1.934,7.364A5.729,5.729,0,0,1,159.609,129.063Z" transform="translate(-153.068 -115.11)" fill="#d7508e"/>
    </g>
    <g id="グループ_1555" data-name="グループ 1555" transform="translate(26.805 19.269)">
      <path id="パス_804" data-name="パス 804" d="M154.84,110.462a55.792,55.792,0,0,0-5.51,5.643V105.739Z" transform="translate(-149.33 -105.739)" fill="#f3e727"/>
    </g>
    <g id="グループ_1556" data-name="グループ 1556" transform="translate(13.559 31.846)">
      <path id="パス_805" data-name="パス 805" d="M153.9,112.491a76.789,76.789,0,0,0-4.56,6.808l-6.249-7.641Z" transform="translate(-143.096 -111.658)" fill="#f3e727"/>
    </g>
    <g id="グループ_1557" data-name="グループ 1557" transform="translate(2.608 44.076)">
      <path id="パス_806" data-name="パス 806" d="M138.543,131.057a2.487,2.487,0,0,1-.361-2.594c.792-1.385,3.4-2.065,6.978-1.817a1.3,1.3,0,0,0,.4-2.565c-5.945-1.462-6.3-3.051-6.321-3.228-.053-.457.55-1.258,2.021-2.016,3.2-1.653,8.367-2.053,10.72-.2a48.478,48.478,0,0,0-4.755,15.589C142.961,134.55,139.827,132.937,138.543,131.057Z" transform="translate(-137.942 -117.414)" fill="#d61518"/>
    </g>
    <g id="グループ_1558" data-name="グループ 1558" transform="translate(43.948 2.605)">
      <path id="パス_807" data-name="パス 807" d="M159.948,106.448c3.761-7.131,5.42-7.027,5.442-7.027.253.032,1.086.941,1.589,4.6a1.3,1.3,0,0,0,1.961.939c1.872-1.126,3.606-2.231,5.133-3.2,2.79-1.778,5.934-3.78,7-3.859.108.5.076,2.18-1.829,7.715a1.3,1.3,0,0,0,1.972,1.5c2.424-1.676,6.506-2.165,8.491-.187,2.346,2.339,1.211,7.473-3.094,14.219A23.593,23.593,0,0,0,181.378,114c-4-3.754-8.795-5.714-12.829-5.24a39.4,39.4,0,0,0-11.151,3C158.052,110.279,158.947,108.35,159.948,106.448Z" transform="translate(-157.398 -97.896)" fill="#d61518"/>
    </g>
    <g id="グループ_1559" data-name="グループ 1559" transform="translate(16.538 93.341)">
      <path id="パス_808" data-name="パス 808" d="M154.95,148.434a.988.988,0,0,0-.474.657l-1.5,7.222-1.1-4.7a.99.99,0,0,0-1.239-.729L144.5,152.65l5.127-5.061a.987.987,0,0,0,.181-1.164l-3.045-5.824,7.15,4.7a.99.99,0,0,0,1.222-.1l2.452-2.29a6.26,6.26,0,0,0,2.707,2.437Z" transform="translate(-144.498 -140.6)" fill="#f3e727"/>
    </g>
    <g id="グループ_1560" data-name="グループ 1560" transform="translate(63.332 92.11)">
      <path id="パス_809" data-name="パス 809" d="M168.693,140.021l3.967,5.669a1,1,0,0,0,1.1.38l7.874-2.38-3.342,2.318a.993.993,0,0,0-.359,1.173l1.906,4.936c-2.144-1.4-4.243-2.558-5.2-2.452-.474.053-1.336.149-3.007,5.025v-6.306a1,1,0,0,0-.168-.55,65.388,65.388,0,0,0-4.942-6.795" transform="translate(-166.521 -140.021)" fill="#f3e727"/>
    </g>
  </g>
</svg>
