<svg xmlns="http://www.w3.org/2000/svg" width="184.65" height="189.061" viewBox="0 0 184.65 189.061">
  <g id="グループ_1619" data-name="グループ 1619" transform="matrix(0.921, -0.391, 0.391, 0.921, -455.35, 41.453)">
    <g id="グループ_1648" data-name="グループ 1648" transform="translate(396.185 -298.1) rotate(7)">
      <path id="パス_842" data-name="パス 842" d="M171.977,623.285c-3.136,0-12.908-2.781-15.246-3.684l-.189-.073c-11.625-4.482-42.507-16.384-58.519-34.342-14.941-16.755-20.6-41.262-14.759-63.958a70.178,70.178,0,0,1,42.269-46.71A85.593,85.593,0,0,1,156.74,469a75.316,75.316,0,0,1,29.758,5.786,67.239,67.239,0,0,1,20.988,14.174,75.084,75.084,0,0,1,19.478,33.585,63.628,63.628,0,0,1-.751,33.49,69.709,69.709,0,0,1-16.044,28.278c-5.157,5.485-11.753,10.162-18.132,14.685a110.685,110.685,0,0,0-11.914,9.2c-3.2,3.085-3.313,4.492-3.272,4.851a11.693,11.693,0,0,0,.324,1.416c.442,1.643,1.105,4.112-.5,6.457A5.477,5.477,0,0,1,171.977,623.285Z" transform="translate(0)"/>
      <path id="パス_843" data-name="パス 843" d="M171.988,622.286h0c-2.964,0-12.647-2.756-14.876-3.616l-.189-.073c-11.57-4.46-42.3-16.307-58.154-34.085C84.046,568,78.475,543.849,84.23,521.473a69.176,69.176,0,0,1,41.663-46.024A84.626,84.626,0,0,1,156.741,470a74.312,74.312,0,0,1,29.365,5.706,66.244,66.244,0,0,1,20.676,13.961,74.047,74.047,0,0,1,19.213,33.124,62.62,62.62,0,0,1-.742,32.957,68.686,68.686,0,0,1-15.812,27.87c-5.084,5.408-11.643,10.058-17.986,14.557a111.431,111.431,0,0,0-12.045,9.309c-3.161,3.048-3.7,4.8-3.59,5.732a12.3,12.3,0,0,0,.357,1.58c.413,1.535.977,3.637-.356,5.584a4.453,4.453,0,0,1-3.832,1.906Z" transform="translate(0)"/>
      <path id="パス_844" data-name="パス 844" d="M222.14,523.767c-4.378-17.033-22.25-49.787-65.394-49.787-45.755,0-64.282,31.433-68.661,48.467-5.3,20.6-.517,43.5,13.646,59.381,15.307,17.162,45.3,28.66,56.9,33.132,2.613,1.007,13.372,3.869,13.787,3.262s-.5-2.506-.707-4.336c-1.148-10.037,22.459-19.874,34.836-33.037C220.144,566.387,227.44,544.363,222.14,523.767Z" transform="translate(0 0)" fill="#fff"/>
    </g>
    <path id="パス_930" data-name="パス 930" d="M-34.68-6.18A2.929,2.929,0,0,0-36.3-3.7a1.8,1.8,0,0,0,.37,1.21,1.286,1.286,0,0,0,1.03.43.628.628,0,0,0,.1-.01.614.614,0,0,1,.08-.01.159.159,0,0,0,.18-.18V-6.12Q-34.54-6.28-34.68-6.18Zm4.94-1.22a11.731,11.731,0,0,0-1.7.12.179.179,0,0,0-.16.18v3.16q0,.04.05.06t.07-.02a11.915,11.915,0,0,0,2.2-3.34.11.11,0,0,0-.02-.11.123.123,0,0,0-.1-.05ZM-35.24.66A4.147,4.147,0,0,1-38.23-.42a3.875,3.875,0,0,1-1.13-2.94,5.692,5.692,0,0,1,1.22-3.59,7.52,7.52,0,0,1,3.46-2.39.219.219,0,0,0,.14-.22V-11.3a.141.141,0,0,0-.16-.16h-2.6a1.1,1.1,0,0,1-.8-.34,1.1,1.1,0,0,1-.34-.8v-.3a1.1,1.1,0,0,1,.34-.8,1.1,1.1,0,0,1,.8-.34h2.6a.141.141,0,0,0,.16-.16v-.84a1.062,1.062,0,0,1,.34-.79,1.111,1.111,0,0,1,.8-.33h.66a1.111,1.111,0,0,1,.8.33,1.062,1.062,0,0,1,.34.79v.84q0,.16.18.16h6.92a1.1,1.1,0,0,1,.8.34,1.1,1.1,0,0,1,.34.8v.3a1.1,1.1,0,0,1-.34.8,1.1,1.1,0,0,1-.8.34h-6.92q-.18,0-.18.16v1.1q0,.14.16.14a15.641,15.641,0,0,1,1.7-.08,8.407,8.407,0,0,1,5.41,1.53,5.078,5.078,0,0,1,1.89,4.17A5.5,5.5,0,0,1-23.69-.85a7.1,7.1,0,0,1-3.45,2.23,1.034,1.034,0,0,1-.86-.1,1.173,1.173,0,0,1-.56-.7l-.18-.56a1.012,1.012,0,0,1,.08-.83A1.272,1.272,0,0,1-28-1.4a4.659,4.659,0,0,0,1.82-1.3,2.685,2.685,0,0,0,.68-1.74,2.6,2.6,0,0,0-.84-2.06q-.1-.1-.18.08a12.773,12.773,0,0,1-3.77,5.23A7.886,7.886,0,0,1-35.24.66ZM-9.66-1.3a1.763,1.763,0,0,0,1.38-.44,2.718,2.718,0,0,0,.38-1.7.248.248,0,0,0-.16-.26,3.583,3.583,0,0,0-1.6-.42,2.3,2.3,0,0,0-1.42.37,1.206,1.206,0,0,0-.48,1.01,1.262,1.262,0,0,0,.5,1.05A2.227,2.227,0,0,0-9.66-1.3Zm5-9.54a.141.141,0,0,0-.16.16v5.62a.306.306,0,0,0,.14.26A25.63,25.63,0,0,1-2.02-2.66a1.111,1.111,0,0,1,.36.79,1.07,1.07,0,0,1-.3.81l-.36.4a1.158,1.158,0,0,1-.8.37,1.113,1.113,0,0,1-.84-.29q-.5-.46-.96-.84a.1.1,0,0,0-.11-.02.123.123,0,0,0-.09.08Q-6,1.26-9.66,1.26A5.581,5.581,0,0,1-13.31.18a3.586,3.586,0,0,1-1.31-2.92,3.559,3.559,0,0,1,1.29-2.89A5.6,5.6,0,0,1-9.66-6.7a5.726,5.726,0,0,1,1.6.22q.16.04.16-.12v-5.94a1.08,1.08,0,0,1,.35-.8,1.057,1.057,0,0,1,.81-.32q2.46.06,4.26.26a1.02,1.02,0,0,1,.75.42,1.1,1.1,0,0,1,.23.84l-.06.48a1.067,1.067,0,0,1-.43.74,1.092,1.092,0,0,1-.83.22Q-3.62-10.8-4.66-10.84ZM-18.44-1.56a1.066,1.066,0,0,1-.63-.57,1.075,1.075,0,0,1-.03-.85q1.36-3.62,2.56-7.8.04-.16-.12-.16H-17.9a1.111,1.111,0,0,1-.8-.33,1.062,1.062,0,0,1-.34-.79v-.48a1.062,1.062,0,0,1,.34-.79,1.111,1.111,0,0,1,.8-.33h1.98a.189.189,0,0,0,.2-.16q.24-.96.36-1.46a1.185,1.185,0,0,1,.5-.74,1.222,1.222,0,0,1,.88-.22l.64.08a1,1,0,0,1,.72.43.975.975,0,0,1,.16.81q-.04.18-.12.55t-.12.55q-.04.16.14.16h1.82a1.111,1.111,0,0,1,.8.33,1.062,1.062,0,0,1,.34.79v.48a1.062,1.062,0,0,1-.34.79,1.111,1.111,0,0,1-.8.33h-2.52a.2.2,0,0,0-.2.18A91.116,91.116,0,0,1-16.3-2.02a1.094,1.094,0,0,1-.59.64,1.144,1.144,0,0,1-.89.04ZM11.12-7.12a1.057,1.057,0,0,1-.81-.26,1.089,1.089,0,0,1-.39-.76l-.04-.4a1.1,1.1,0,0,1,.27-.83,1.1,1.1,0,0,1,.77-.41q3.24-.3,6.1-.32a1.062,1.062,0,0,1,.79.34,1.111,1.111,0,0,1,.33.8v.4a1.1,1.1,0,0,1-.34.8,1.1,1.1,0,0,1-.8.34Q14.02-7.4,11.12-7.12Zm6.02,5.08a1.114,1.114,0,0,1,.83.21,1.033,1.033,0,0,1,.43.73l.06.48a1.125,1.125,0,0,1-.22.85,1.142,1.142,0,0,1-.74.45A23.366,23.366,0,0,1,14.4.9,8.561,8.561,0,0,1,9.85-.15,3.1,3.1,0,0,1,8.16-2.84,3.385,3.385,0,0,1,9.22-5.12a1.412,1.412,0,0,1,.87-.46,1.578,1.578,0,0,1,.99.16l.34.16a.736.736,0,0,1,.42.58.8.8,0,0,1-.22.7,1.229,1.229,0,0,0-.38.8q0,.58.83.96a5.74,5.74,0,0,0,2.33.38A20.248,20.248,0,0,0,17.14-2.04ZM2.7.78A.974.974,0,0,1,2.04.29a1,1,0,0,1-.08-.83q1.7-5.4,2.78-10.58a.121.121,0,0,0-.03-.12.143.143,0,0,0-.11-.06H3.34a1.1,1.1,0,0,1-.8-.34,1.1,1.1,0,0,1-.34-.8v-.46a1.1,1.1,0,0,1,.34-.8,1.1,1.1,0,0,1,.8-.34H5.12a.206.206,0,0,0,.22-.18q.04-.18.1-.5t.08-.5a1.177,1.177,0,0,1,.46-.77,1.206,1.206,0,0,1,.86-.25l.8.06a1,1,0,0,1,.74.41,1,1,0,0,1,.2.81q-.02.12-.06.38t-.06.38q-.04.16.14.16h5.54a1.062,1.062,0,0,1,.79.34,1.111,1.111,0,0,1,.33.8v.46a1.111,1.111,0,0,1-.33.8,1.062,1.062,0,0,1-.79.34H8.08a.189.189,0,0,0-.2.16A103.909,103.909,0,0,1,5.02.14a1.165,1.165,0,0,1-.57.7,1.234,1.234,0,0,1-.89.14Zm29.2-4.9q-1.72,0-1.72,1.22,0,1.3,1.72,1.3a1.623,1.623,0,0,0,1.18-.36,1.656,1.656,0,0,0,.36-1.2v-.36a.248.248,0,0,0-.16-.26A2.975,2.975,0,0,0,31.9-4.12Zm.18,5.26A5.383,5.383,0,0,1,28.51.07,3.673,3.673,0,0,1,27.24-2.9,3.582,3.582,0,0,1,28.5-5.81a5.446,5.446,0,0,1,3.58-1.05,6.105,6.105,0,0,1,1.2.12q.16.04.16-.14V-9.92a.159.159,0,0,0-.18-.18H29.1a1.062,1.062,0,0,1-.79-.34,1.111,1.111,0,0,1-.33-.8v-.46a1.111,1.111,0,0,1,.33-.8,1.062,1.062,0,0,1,.79-.34h4.16q.18,0,.18-.16v-1.64a1.062,1.062,0,0,1,.34-.79,1.111,1.111,0,0,1,.8-.33h.8a1.078,1.078,0,0,1,.79.33,1.078,1.078,0,0,1,.33.79V-13q0,.16.18.16H38.5a1.1,1.1,0,0,1,.8.34,1.1,1.1,0,0,1,.34.8v.46a1.1,1.1,0,0,1-.34.8,1.1,1.1,0,0,1-.8.34H36.68a.159.159,0,0,0-.18.18v4.84a.4.4,0,0,0,.14.28q.94.84,2.38,2.3a1.141,1.141,0,0,1,.32.81A1.106,1.106,0,0,1,39-.88l-.4.38a1.129,1.129,0,0,1-.8.32,1.031,1.031,0,0,1-.78-.34q-.1-.12-.32-.34t-.32-.34a.149.149,0,0,0-.11-.04.085.085,0,0,0-.09.06Q35.26,1.14,32.08,1.14Zm-7.52-.12A1.222,1.222,0,0,1,23.68.8a1.193,1.193,0,0,1-.5-.76,33.989,33.989,0,0,1-.74-7.24,33.989,33.989,0,0,1,.74-7.24,1.193,1.193,0,0,1,.5-.76,1.222,1.222,0,0,1,.88-.22l.76.1a.923.923,0,0,1,.7.41,1.01,1.01,0,0,1,.16.83A33.074,33.074,0,0,0,25.5-7.2a33.074,33.074,0,0,0,.68,6.88.983.983,0,0,1-.16.82,1,1,0,0,1-.7.42Zm-62.92,9.3a1.123,1.123,0,0,1,.88-.08,1.1,1.1,0,0,1,.68.56q.22.4.66,1.24a1.073,1.073,0,0,1,.04.86,1.1,1.1,0,0,1-.58.64,1.124,1.124,0,0,1-.88.04,1.176,1.176,0,0,1-.66-.58q-.1-.18-.64-1.18a1.028,1.028,0,0,1-.08-.84,1.1,1.1,0,0,1,.56-.66Zm4.76-.24q.66,1.26.68,1.3a1.051,1.051,0,0,1,.07.86,1.062,1.062,0,0,1-.57.64l-.06.04a1.125,1.125,0,0,1-.87.05,1.135,1.135,0,0,1-.67-.57q-.1-.2-.32-.62t-.34-.62a1.1,1.1,0,0,1-.09-.86,1,1,0,0,1,.55-.66l.06-.02a1.155,1.155,0,0,1,.88-.09A1.063,1.063,0,0,1-33.6,10.08ZM-41.46,27.3q-7.44,0-7.44-4.84,0-2.56,3.16-4.42.12-.06.04-.22a1.879,1.879,0,0,1-.14-.34q-.72-3.1-1.14-5.42a1.057,1.057,0,0,1,.2-.84,1.129,1.129,0,0,1,.74-.46l1.06-.16a1.057,1.057,0,0,1,.84.2,1.21,1.21,0,0,1,.48.74q.44,2.42,1.06,4.9.04.18.2.1a56.488,56.488,0,0,1,6.1-1.76,1.051,1.051,0,0,1,.83.15,1.084,1.084,0,0,1,.49.71l.14.68a1.094,1.094,0,0,1-.16.86,1.111,1.111,0,0,1-.72.5,50.215,50.215,0,0,0-5.97,1.71,10.348,10.348,0,0,0-3.01,1.54,2.045,2.045,0,0,0-.8,1.53,1.552,1.552,0,0,0,.95,1.46,7.3,7.3,0,0,0,3.09.48,38.717,38.717,0,0,0,5.52-.4,1.061,1.061,0,0,1,.82.22,1.079,1.079,0,0,1,.42.74l.08.64a1.134,1.134,0,0,1-.23.86,1.1,1.1,0,0,1-.77.44A41.553,41.553,0,0,1-41.46,27.3Zm14.36-9.78-.08-.46a1.094,1.094,0,0,1,.16-.86,1.111,1.111,0,0,1,.72-.5,32.268,32.268,0,0,1,6.32-.88q6.2,0,6.2,5.16a5.5,5.5,0,0,1-2.3,4.78q-2.3,1.64-7.18,1.8a1.1,1.1,0,0,1-.83-.31,1.216,1.216,0,0,1-.39-.81l-.04-.42a.98.98,0,0,1,.27-.79,1.082,1.082,0,0,1,.77-.35,11.288,11.288,0,0,0,5.11-1.04,2.94,2.94,0,0,0,1.55-2.68,2.335,2.335,0,0,0-.81-1.98,4.375,4.375,0,0,0-2.63-.62,31.292,31.292,0,0,0-5.5.84,1.057,1.057,0,0,1-.84-.16A1.111,1.111,0,0,1-27.1,17.52ZM-7,14.94a1.1,1.1,0,0,1-.8-.34,1.1,1.1,0,0,1-.34-.8v-.46a1.1,1.1,0,0,1,.34-.8A1.1,1.1,0,0,1-7,12.2h2.96a.189.189,0,0,0,.2-.16q.04-.2.09-.56t.07-.52a1.137,1.137,0,0,1,.43-.76,1.226,1.226,0,0,1,.85-.28l.8.06a.989.989,0,0,1,.75.37,1.012,1.012,0,0,1,.23.81q-.02.16-.07.46l-.07.42q-.04.16.14.16H7a1.162,1.162,0,0,1,1.14,1.14v.46A1.162,1.162,0,0,1,7,14.94H-1.22a.2.2,0,0,0-.22.16q-.24.88-.8,2.46v.04h.02a.058.058,0,0,0,.04.02A11.588,11.588,0,0,1,1.36,17a6.327,6.327,0,0,1,4.26,1.28A4.456,4.456,0,0,1,7.1,21.84a4.467,4.467,0,0,1-2.03,3.82A9.285,9.285,0,0,1-.4,27.1a23.944,23.944,0,0,1-4.02-.34,1.048,1.048,0,0,1-.72-.47,1.1,1.1,0,0,1-.16-.87l.1-.5a1.048,1.048,0,0,1,.47-.72,1.131,1.131,0,0,1,.85-.18,20.124,20.124,0,0,0,3.48.34,5.685,5.685,0,0,0,3.12-.74,2.247,2.247,0,0,0,1.14-1.96q0-1.92-2.66-1.92a8.4,8.4,0,0,0-4.04,1,2.254,2.254,0,0,1-2,.14l-.7-.28a1.058,1.058,0,0,1-.61-.61,1.024,1.024,0,0,1,.03-.85A34.142,34.142,0,0,0-4.56,15.1q.04-.16-.12-.16Zm19.58-2.46a1.079,1.079,0,0,1-.42-.74,1.024,1.024,0,0,1,.24-.82l.28-.32a1.2,1.2,0,0,1,1.64-.22q.82.6,1.6,1.24a1.084,1.084,0,0,1,.4.77,1.168,1.168,0,0,1-.26.85l-.32.38a1.076,1.076,0,0,1-.76.4,1.089,1.089,0,0,1-.82-.26Q13.1,12.88,12.58,12.48Zm-.86,4.4a1.051,1.051,0,0,1-.41-.75,1.01,1.01,0,0,1,.25-.81l.28-.32a1.2,1.2,0,0,1,.77-.43,1.167,1.167,0,0,1,.87.21q1.1.82,2,1.6A1.163,1.163,0,0,1,15.62,18l-.32.4a.987.987,0,0,1-.75.39,1.073,1.073,0,0,1-.81-.27Q12.7,17.64,11.72,16.88Zm3.44,3.48.46.16a1.161,1.161,0,0,1,.68.6,1.178,1.178,0,0,1,.08.9,27.6,27.6,0,0,1-2.02,4.86,1,1,0,0,1-.69.53,1.028,1.028,0,0,1-.85-.15l-.56-.36a1.146,1.146,0,0,1-.51-.71,1.2,1.2,0,0,1,.11-.87,32.172,32.172,0,0,0,1.88-4.28,1.1,1.1,0,0,1,.57-.64A1.048,1.048,0,0,1,15.16,20.36Zm14.26-.04q-.66.56-1.22.96a.224.224,0,0,0-.08.26,11.736,11.736,0,0,0,1.24,2.88,1.582,1.582,0,0,1,.27.93,1.3,1.3,0,0,1-.33.87l-.74.86a.837.837,0,0,1-.72.32.759.759,0,0,1-.66-.4,15.378,15.378,0,0,1-1.75-4.12,34.052,34.052,0,0,1-.93-5.96.141.141,0,0,0-.16-.16.614.614,0,0,0-.08.01.613.613,0,0,1-.08.01.159.159,0,0,0-.18.18v9.6a1.162,1.162,0,0,1-1.14,1.14h-.8a1.062,1.062,0,0,1-.79-.34,1.111,1.111,0,0,1-.33-.8v-9.4q0-.16-.18-.16-.04,0-.14.01t-.16.01q-.16,0-.16.18-.16,6.58-1.52,9.8a.87.87,0,0,1-.61.53.956.956,0,0,1-.81-.15l-.76-.52a1.238,1.238,0,0,1-.53-.75,1.428,1.428,0,0,1,.05-.93,18.054,18.054,0,0,0,1.04-4.59,77.859,77.859,0,0,0,.3-7.93V11.9a1.068,1.068,0,0,1,.33-.8,1.2,1.2,0,0,1,.81-.34,54.966,54.966,0,0,0,8.8-.88,1.186,1.186,0,0,1,.89.15,1.222,1.222,0,0,1,.55.71l.14.42a.984.984,0,0,1-.1.84.966.966,0,0,1-.68.48,52.889,52.889,0,0,1-7.7.82q-.16,0-.16.18v.92q0,.16.18.16a43.585,43.585,0,0,0,7.42-.86,1.216,1.216,0,0,1,.86.16,1.113,1.113,0,0,1,.52.7l.08.26a1.1,1.1,0,0,1-.11.86.936.936,0,0,1-.67.48q-.36.08-1.12.2-.14.02-.14.2.14,1.62.18,1.96,0,.16.16.06l.24-.18a1.1,1.1,0,0,1,.82-.23,1.043,1.043,0,0,1,.74.41l.08.1a1.231,1.231,0,0,1,.24.86A1.093,1.093,0,0,1,29.42,20.32Zm6.4-6.78-.1-.46a1.173,1.173,0,0,1,.14-.87,1.034,1.034,0,0,1,.7-.51,22.722,22.722,0,0,1,4.68-.5,7.455,7.455,0,0,1,4.14.98,2.959,2.959,0,0,1,1.48,2.56,4.038,4.038,0,0,1-.2,1.32,2.74,2.74,0,0,1-.67,1.05,7.438,7.438,0,0,1-.81.72q-.34.25-1.02.69a5.749,5.749,0,0,0-2.02,1.78,1.709,1.709,0,0,1-1.44,1.06h-.86a1.053,1.053,0,0,1-.8-.34.74.74,0,0,1-.18-.78,3.594,3.594,0,0,1,.42-.97,4.179,4.179,0,0,1,.74-.87,8.088,8.088,0,0,1,.73-.61q.27-.19.85-.61.58-.4.87-.63a3.063,3.063,0,0,0,.56-.6,1.263,1.263,0,0,0,.27-.75q0-1.32-2.56-1.32a15.337,15.337,0,0,0-3.58.48,1.113,1.113,0,0,1-.85-.14A1.041,1.041,0,0,1,35.82,13.54ZM40.86,23A1.162,1.162,0,0,1,42,24.14v.72A1.162,1.162,0,0,1,40.86,26h-1.2a1.062,1.062,0,0,1-.79-.34,1.111,1.111,0,0,1-.33-.8v-.72a1.111,1.111,0,0,1,.33-.8,1.062,1.062,0,0,1,.79-.34Z" transform="matrix(0.966, 0.259, -0.259, 0.966, 486.869, 251.072)" fill="#040000"/>
  </g>
</svg>
